<?xml version="1.0" encoding="UTF-8" standalone="no"?>
<svg
   viewBox="0 0 186.96001 199.89806"
   width="186.96001"
   height="199.89806"
   version="1.1"
   id="svg20"
   xmlns="http://www.w3.org/2000/svg"
   xmlns:svg="http://www.w3.org/2000/svg">
  <defs
     id="defs20" />
  <style
     id="style1">
		tspan { white-space:pre }
		.shp0 { fill: #21cb35 } 
		.shp1 { fill: #1f1d1c } 
		.shp2 { fill: #d9232e } 
	</style>
  <g
     id="g20"
     transform="translate(0.03,-0.03194939)">
    <path
       class="shp0"
       d="M 89.89,0.07 C 89.25,0.1 88.23,0.18 87.62,0.23 87.01,0.29 85.93,0.41 85.21,0.5 84.5,0.59 83.37,0.76 82.71,0.87 82.04,0.98 80.93,1.19 80.23,1.34 79.54,1.49 78.42,1.75 77.76,1.91 77.1,2.07 75.99,2.37 75.29,2.57 c -0.7,0.2 -1.93,0.58 -2.74,0.84 -0.81,0.26 -2.21,0.74 -3.11,1.07 -0.9,0.33 -2.39,0.9 -3.31,1.27 -0.92,0.36 -2.03,0.81 -2.47,1 -0.44,0.18 -1.83,0.78 -3.08,1.33 -1.25,0.55 -4.51,2.03 -7.25,3.29 -2.74,1.25 -5.46,2.5 -6.05,2.76 -0.58,0.27 -2.04,0.91 -3.24,1.44 -1.19,0.52 -3.01,1.31 -4.04,1.75 -1.03,0.44 -2.52,1.05 -3.31,1.37 -0.79,0.31 -1.81,0.7 -2.27,0.86 -0.46,0.17 -1.29,0.45 -1.84,0.62 -0.55,0.17 -1.51,0.44 -2.14,0.6 -0.62,0.16 -1.46,0.35 -1.87,0.43 -0.4,0.07 -1.14,0.19 -1.64,0.26 -0.49,0.07 -1.32,0.16 -1.83,0.2 -0.52,0.04 -1.36,0.07 -1.88,0.07 -0.51,0 -1.46,-0.04 -2.1,-0.1 -0.64,-0.06 -1.49,-0.15 -1.87,-0.2 -0.39,-0.06 -1.15,-0.19 -1.71,-0.3 -0.55,-0.11 -1.39,-0.31 -1.87,-0.44 -0.48,-0.13 -1.54,-0.5 -2.35,-0.83 -0.82,-0.33 -1.74,-0.66 -2.04,-0.75 -0.31,-0.09 -0.71,-0.18 -0.9,-0.2 -0.2,-0.02 -0.36,-0.02 -0.36,0.01 0,0.02 0.29,1.32 0.64,2.88 0.36,1.56 1.11,4.98 1.68,7.6 0.57,2.62 1.33,6.18 1.7,7.9 0.37,1.72 0.91,4.29 1.2,5.7 0.28,1.41 0.66,3.3 0.83,4.2 0.17,0.9 0.38,2.1 0.47,2.67 0.08,0.56 0.14,1.04 0.13,1.05 -0.02,0.01 -0.17,-0.07 -0.35,-0.17 -0.17,-0.1 -0.98,-0.59 -1.78,-1.09 -0.81,-0.5 -2.56,-1.59 -3.88,-2.43 C 9.34,46.4 7.67,45.35 6.95,44.91 6.23,44.48 5.17,43.84 4.58,43.5 3.99,43.16 3.1,42.68 2.61,42.42 2.11,42.16 1.43,41.84 1.1,41.71 0.77,41.58 0.38,41.45 0.23,41.43 l -0.26,-0.05 c 0.07,1.02 0.2,1.95 0.33,2.72 0.12,0.77 0.34,1.95 0.47,2.63 0.13,0.68 0.41,2.09 0.63,3.14 0.22,1.04 0.95,4.33 1.63,7.3 0.68,2.97 1.63,7.24 2.11,9.5 0.49,2.25 1.24,5.82 1.68,7.93 0.45,2.11 1.18,5.68 1.64,7.93 0.46,2.26 1.21,5.95 1.67,8.2 0.45,2.26 1.23,6.05 1.73,8.44 0.49,2.38 1.27,6.08 1.73,8.23 0.46,2.15 1.2,5.49 1.65,7.43 0.44,1.95 1.17,5.14 1.61,7.1 0.44,1.96 1.44,6.66 2.23,10.44 0.79,3.77 1.72,8.2 2.07,9.83 0.35,1.63 0.69,3.12 0.75,3.3 0.06,0.18 0.22,0.56 0.37,0.83 0.15,0.28 0.4,0.67 0.55,0.87 0.16,0.2 0.52,0.59 0.81,0.87 0.29,0.27 0.79,0.69 1.1,0.94 0.31,0.24 1.33,0.97 2.27,1.62 0.94,0.66 2.04,1.45 2.45,1.76 0.41,0.32 1.57,1.24 2.58,2.05 1,0.81 3.69,2.87 5.96,4.58 2.28,1.71 5.92,4.45 8.09,6.09 2.17,1.64 6.07,4.57 8.66,6.52 2.59,1.95 6,4.5 7.58,5.67 1.58,1.17 4,2.94 5.38,3.93 1.38,1 3.95,2.83 5.72,4.07 1.76,1.24 3.84,2.72 4.61,3.29 0.77,0.56 3,2.25 4.94,3.74 1.95,1.49 4.16,3.18 4.92,3.75 0.75,0.57 1.86,1.39 2.47,1.83 0.61,0.44 1.51,1.07 2,1.41 l 0.91,0.61 c 1.14,-0.59 1.95,-1.09 2.54,-1.49 0.58,-0.41 1.73,-1.21 2.54,-1.8 0.8,-0.58 2.07,-1.51 2.8,-2.06 0.74,-0.56 2.54,-1.92 4.01,-3.04 1.47,-1.12 3.13,-2.38 3.68,-2.81 0.55,-0.42 12.55,-9.38 26.66,-19.9 14.12,-10.52 26.3,-19.59 27.07,-20.15 0.77,-0.57 1.52,-1.14 1.66,-1.27 0.15,-0.15 0.29,-0.37 0.34,-0.54 0.05,-0.17 0.12,-0.57 0.14,-0.9 0.02,-0.33 0.15,-1.25 0.29,-2.04 l 0.25,-1.43 c 0.36,-0.07 -0.17,-0.08 -0.94,-0.06 l -1.4,0.03 c -0.4,0.44 -0.57,0.68 -0.64,0.83 -0.07,0.15 -0.15,0.5 -0.17,0.8 -0.03,0.32 -0.1,0.64 -0.18,0.8 -0.07,0.15 -0.36,0.49 -0.64,0.77 -0.28,0.27 -1.37,1.13 -2.41,1.9 -1.04,0.77 -12.12,9.01 -24.63,18.32 -12.5,9.31 -25.1,18.71 -28,20.9 -2.9,2.19 -5.93,4.47 -6.75,5.07 -0.81,0.59 -1.97,1.44 -2.58,1.87 -0.61,0.43 -1.51,1.06 -2.01,1.39 -0.49,0.33 -1.06,0.69 -1.27,0.8 l -0.36,0.21 c -3.53,-2.5 -5.63,-4.03 -6.95,-5 -1.33,-0.97 -4.15,-3.07 -6.29,-4.66 -2.13,-1.6 -7.77,-5.85 -12.53,-9.44 -4.76,-3.6 -16.17,-12.19 -25.36,-19.09 -9.19,-6.9 -16.76,-12.6 -16.83,-12.66 -0.08,-0.08 -0.26,-0.72 -0.55,-1.95 -0.24,-1.01 -1.02,-4.43 -1.74,-7.6 C 22.31,132.56 21,126.68 20.12,122.67 19.23,118.65 17.69,111.65 16.7,107.1 15.71,102.55 14.04,94.86 12.99,90 11.95,85.14 10.37,77.76 9.48,73.6 8.6,69.44 7.28,63.12 6.54,59.57 5.81,56.01 4.99,51.82 4.71,50.27 4.44,48.71 4.22,47.43 4.23,47.42 c 0.01,-0.01 3.82,2.22 8.47,4.96 4.65,2.73 8.51,4.99 8.57,5.01 0.11,0.04 0.11,0.02 0.02,-0.36 -0.05,-0.22 -1.64,-7.74 -3.52,-16.71 -1.89,-8.97 -3.42,-16.33 -3.4,-16.35 0.02,-0.02 1.3,0.11 2.84,0.3 1.54,0.18 3.36,0.38 4.03,0.43 0.67,0.06 1.84,0.1 2.6,0.1 0.77,0 1.85,-0.05 2.43,-0.1 0.57,-0.06 1.47,-0.18 2,-0.27 0.53,-0.09 1.3,-0.24 1.7,-0.34 0.41,-0.09 1.09,-0.25 1.51,-0.37 0.42,-0.11 1.37,-0.37 2.1,-0.59 0.74,-0.22 1.85,-0.56 2.48,-0.77 0.62,-0.2 1.6,-0.54 2.17,-0.74 0.57,-0.2 1.77,-0.66 2.67,-1.02 0.9,-0.36 2.45,-1.01 3.44,-1.45 1,-0.44 2.38,-1.07 3.08,-1.4 0.7,-0.33 1.97,-0.95 2.84,-1.37 0.86,-0.42 3.12,-1.52 5.01,-2.44 1.89,-0.93 4.3,-2.08 5.35,-2.57 1.05,-0.49 2.73,-1.24 3.74,-1.67 1.01,-0.43 2.59,-1.08 3.51,-1.44 0.92,-0.35 2.48,-0.92 3.47,-1.26 1,-0.33 2.38,-0.77 3.08,-0.98 0.7,-0.2 1.84,-0.51 2.54,-0.69 0.7,-0.18 1.92,-0.46 2.71,-0.62 0.79,-0.17 2.08,-0.41 2.87,-0.54 0.79,-0.13 1.92,-0.29 2.51,-0.37 0.58,-0.07 1.74,-0.19 2.57,-0.27 0.83,-0.07 2.52,-0.16 3.77,-0.21 1.79,-0.06 2.72,-0.06 4.32,0 1.12,0.05 2.58,0.13 3.24,0.18 0.66,0.06 1.58,0.15 2.04,0.2 0.45,0.06 1.27,0.16 1.8,0.24 0.53,0.07 1.31,0.19 1.74,0.27 0.42,0.07 1.31,0.24 1.97,0.36 0.66,0.13 1.88,0.41 2.71,0.61 0.82,0.2 2.16,0.55 2.97,0.79 0.81,0.23 2.03,0.61 2.71,0.83 0.68,0.23 1.68,0.58 2.24,0.78 0.55,0.2 1.39,0.52 1.87,0.7 0.47,0.18 1.59,0.63 2.47,1 0.88,0.37 2.36,1 3.27,1.42 0.92,0.41 2.44,1.11 3.38,1.55 0.94,0.44 3.18,1.51 4.98,2.38 1.8,0.87 3.98,1.92 4.84,2.32 0.87,0.4 2.43,1.12 3.48,1.6 1.05,0.47 2.36,1.06 2.91,1.3 0.55,0.23 1.54,0.65 2.2,0.92 0.66,0.27 1.84,0.72 2.61,1.02 0.77,0.29 1.82,0.66 2.34,0.83 0.51,0.17 1.31,0.41 1.77,0.54 0.46,0.13 1.23,0.32 1.7,0.43 0.48,0.11 1.38,0.31 2.01,0.43 0.62,0.13 1.63,0.31 2.24,0.41 0.6,0.09 1.57,0.22 2.14,0.28 0.67,0.07 1.61,0.11 2.67,0.11 1.27,0 1.86,-0.04 2.64,-0.14 0.55,-0.08 1.63,-0.23 2.41,-0.35 0.77,-0.11 1.85,-0.25 2.4,-0.3 0.55,-0.04 1.01,-0.08 1.02,-0.07 0.01,0 -0.43,2.11 -0.98,4.67 -0.55,2.57 -2.15,10.01 -3.55,16.54 -1.4,6.52 -2.53,11.91 -2.52,11.97 0.01,0.09 2.11,-1.11 8.6,-4.87 4.73,-2.75 8.6,-4.99 8.61,-4.98 0,0 -3.73,17.68 -8.31,39.28 -4.57,21.59 -8.3,39.27 -8.3,39.28 0.01,0.01 0.51,0.18 1.12,0.37 l 1.1,0.36 0.74,-0.3 c 0.7,-2.41 1.31,-4.9 1.81,-7.08 0.49,-2.18 1.44,-6.49 2.1,-9.57 0.65,-3.08 1.78,-8.42 2.5,-11.86 0.72,-3.45 2.5,-12 3.95,-19 1.45,-7.01 3.18,-15.32 3.85,-18.47 0.66,-3.15 1.62,-7.61 2.14,-9.9 0.51,-2.29 1.03,-4.62 1.16,-5.17 0.13,-0.55 0.27,-1.35 0.33,-1.78 0.06,-0.43 0.1,-1.07 0.1,-1.42 V 41.4 c -0.39,0.06 -0.71,0.16 -0.97,0.25 -0.25,0.09 -0.87,0.37 -1.37,0.62 -0.49,0.25 -1.41,0.74 -2.03,1.1 -0.63,0.35 -1.68,0.98 -2.34,1.38 -0.67,0.41 -2.65,1.65 -4.41,2.77 -1.77,1.12 -3.72,2.35 -4.35,2.72 -0.62,0.38 -1.14,0.67 -1.15,0.64 -0.02,-0.03 0.86,-4.44 1.95,-9.81 1.09,-5.38 2.13,-10.5 2.31,-11.4 0.19,-0.9 0.61,-2.88 0.94,-4.4 0.32,-1.52 0.77,-3.57 1,-4.54 0.22,-0.97 0.4,-1.79 0.4,-1.81 0,-0.03 -0.14,-0.04 -0.32,-0.01 -0.17,0.02 -0.78,0.19 -1.35,0.39 -0.57,0.19 -1.5,0.52 -2.07,0.72 -0.57,0.2 -1.46,0.49 -1.98,0.64 -0.51,0.14 -1.34,0.36 -1.83,0.47 -0.5,0.1 -1.37,0.27 -1.94,0.36 -0.57,0.1 -1.46,0.21 -1.97,0.25 -0.73,0.06 -1.23,0.06 -2.24,0 -0.72,-0.04 -1.79,-0.14 -2.38,-0.21 -0.58,-0.08 -1.47,-0.21 -1.97,-0.3 -0.49,-0.09 -1.4,-0.27 -2,-0.4 -0.61,-0.13 -1.41,-0.33 -1.77,-0.43 -0.37,-0.11 -1.35,-0.42 -2.18,-0.7 -0.82,-0.29 -2.31,-0.84 -3.3,-1.23 -1,-0.4 -2.6,-1.07 -3.58,-1.49 -0.97,-0.42 -2.61,-1.16 -3.64,-1.63 -1.03,-0.48 -3.44,-1.61 -5.35,-2.52 -1.91,-0.91 -4.36,-2.06 -5.44,-2.56 -1.09,-0.51 -2.74,-1.25 -3.68,-1.65 -0.94,-0.41 -2.8,-1.2 -4.14,-1.75 -1.35,-0.56 -3.03,-1.26 -3.75,-1.55 -0.71,-0.29 -2,-0.78 -2.85,-1.09 C 116.32,3.92 114.95,3.47 114.13,3.24 113.32,3 112.02,2.65 111.24,2.47 110.47,2.28 109,1.95 107.97,1.74 106.94,1.52 105.53,1.24 104.83,1.11 104.13,0.98 103.14,0.81 102.62,0.74 102.11,0.66 101.19,0.54 100.58,0.46 99.98,0.39 98.76,0.27 97.88,0.2 96.74,0.1 95.52,0.05 93.67,0.04 c -1.44,-0.02 -3.14,0 -3.78,0.03 z"
       id="path1" />
    <path
       class="shp1"
       d="M 90.63,3.34 C 89.91,3.37 88.74,3.44 88.02,3.5 87.3,3.56 86.21,3.67 85.58,3.74 84.96,3.81 83.86,3.96 83.14,4.07 82.42,4.18 81.09,4.42 80.17,4.61 79.25,4.79 77.86,5.1 77.09,5.3 76.32,5.5 75.12,5.82 74.42,6.02 73.72,6.23 72.34,6.67 71.34,7 c -0.99,0.34 -2.55,0.91 -3.47,1.26 -0.92,0.36 -2.5,1.01 -3.51,1.44 -1.01,0.43 -2.69,1.18 -3.74,1.67 -1.05,0.49 -3.46,1.64 -5.35,2.57 -1.89,0.92 -4.15,2.02 -5.01,2.44 -0.87,0.42 -2.14,1.04 -2.84,1.37 -0.7,0.33 -2.08,0.96 -3.08,1.4 -0.99,0.44 -2.54,1.09 -3.44,1.45 -0.9,0.36 -2.1,0.82 -2.67,1.02 -0.57,0.2 -1.55,0.54 -2.17,0.74 -0.63,0.21 -1.74,0.55 -2.48,0.77 -0.73,0.22 -1.68,0.48 -2.1,0.59 -0.42,0.12 -1.1,0.28 -1.51,0.37 -0.4,0.1 -1.17,0.25 -1.7,0.34 -0.53,0.09 -1.43,0.21 -2,0.27 -0.58,0.05 -1.66,0.1 -2.43,0.1 -0.76,0 -1.93,-0.04 -2.6,-0.1 -0.67,-0.05 -2.49,-0.25 -4.03,-0.43 -1.54,-0.19 -2.82,-0.32 -2.84,-0.3 -0.02,0.02 1.51,7.38 3.4,16.35 1.88,8.97 3.47,16.49 3.52,16.71 0.09,0.38 0.09,0.4 -0.02,0.36 -0.06,-0.02 -3.92,-2.28 -8.57,-5.01 -4.65,-2.74 -8.46,-4.97 -8.47,-4.96 -0.01,0.01 0.21,1.29 0.48,2.85 0.28,1.55 1.1,5.74 1.83,9.3 0.74,3.55 2.06,9.87 2.94,14.03 0.89,4.16 2.47,11.54 3.51,16.4 1.05,4.86 2.72,12.55 3.71,17.1 0.99,4.55 2.53,11.55 3.42,15.57 0.88,4.01 2.19,9.89 2.9,13.06 0.72,3.17 1.5,6.59 1.74,7.6 0.29,1.23 0.47,1.87 0.55,1.95 0.07,0.06 7.64,5.76 16.83,12.66 9.19,6.9 20.6,15.49 25.36,19.09 4.76,3.59 10.4,7.84 12.53,9.44 2.14,1.59 4.96,3.69 6.29,4.66 1.32,0.97 3.42,2.5 4.67,3.38 l 2.28,1.62 c 0.57,-0.32 1.14,-0.68 1.63,-1.01 0.5,-0.33 1.4,-0.96 2.01,-1.39 0.61,-0.43 1.77,-1.28 2.58,-1.87 0.82,-0.6 3.85,-2.88 6.75,-5.07 2.9,-2.19 15.5,-11.59 28,-20.9 12.51,-9.31 23.59,-17.55 24.63,-18.32 1.04,-0.77 2.13,-1.63 2.41,-1.9 0.28,-0.28 0.57,-0.62 0.64,-0.77 0.08,-0.16 0.15,-0.48 0.18,-0.8 0.02,-0.3 0.1,-0.65 0.17,-0.8 0.07,-0.15 0.24,-0.4 0.38,-0.55 l 0.26,-0.29 c 4.09,-0.09 8.49,-0.2 12.43,-0.3 4.75,-0.12 7.18,-0.21 7.24,-0.25 0.07,-0.06 0.09,-0.21 0.05,-0.69 -0.02,-0.38 -0.1,-0.77 -0.19,-1 -0.09,-0.25 -0.27,-0.52 -0.48,-0.75 -0.19,-0.19 -0.69,-0.59 -1.11,-0.89 -0.53,-0.37 -1.03,-0.8 -1.63,-1.41 -0.47,-0.48 -1.41,-1.48 -2.07,-2.23 -0.67,-0.76 -1.48,-1.67 -1.8,-2.04 -0.33,-0.37 -1.12,-1.22 -1.76,-1.9 -0.63,-0.68 -1.48,-1.53 -1.88,-1.88 -0.39,-0.36 -1.04,-0.9 -1.43,-1.2 -0.39,-0.31 -0.98,-0.72 -1.3,-0.92 -0.46,-0.29 -0.84,-0.45 -1.76,-0.75 -0.65,-0.21 -1.18,-0.39 -1.19,-0.4 0,-0.01 3.73,-17.69 8.3,-39.28 4.58,-21.6 8.31,-39.28 8.31,-39.28 -0.01,-0.01 -3.88,2.23 -8.61,4.98 -6.49,3.76 -8.59,4.96 -8.6,4.87 -0.01,-0.06 1.12,-5.45 2.52,-11.97 1.4,-6.53 3,-13.97 3.55,-16.54 0.55,-2.56 0.99,-4.67 0.98,-4.67 -0.01,-0.01 -0.47,0.03 -1.02,0.07 -0.55,0.05 -1.63,0.19 -2.4,0.3 -0.78,0.12 -1.86,0.27 -2.41,0.35 -0.78,0.1 -1.37,0.14 -2.64,0.14 -1.06,0 -2,-0.04 -2.67,-0.11 -0.57,-0.06 -1.54,-0.19 -2.14,-0.28 -0.61,-0.1 -1.62,-0.28 -2.24,-0.41 -0.63,-0.12 -1.53,-0.32 -2.01,-0.43 -0.47,-0.11 -1.24,-0.3 -1.7,-0.43 -0.46,-0.13 -1.26,-0.37 -1.77,-0.54 -0.52,-0.17 -1.57,-0.54 -2.34,-0.83 -0.77,-0.3 -1.95,-0.75 -2.61,-1.02 -0.66,-0.27 -1.65,-0.69 -2.2,-0.92 -0.55,-0.24 -1.86,-0.83 -2.91,-1.3 -1.05,-0.48 -2.61,-1.2 -3.48,-1.6 -0.86,-0.4 -3.04,-1.45 -4.84,-2.32 -1.8,-0.87 -4.04,-1.94 -4.98,-2.38 -0.94,-0.44 -2.46,-1.14 -3.38,-1.55 -0.91,-0.42 -2.39,-1.05 -3.27,-1.42 -0.88,-0.37 -2,-0.82 -2.47,-1 -0.48,-0.18 -1.32,-0.5 -1.87,-0.7 -0.56,-0.2 -1.56,-0.55 -2.24,-0.78 -0.68,-0.22 -1.9,-0.6 -2.71,-0.83 C 111.37,5.73 110.03,5.38 109.21,5.18 108.38,4.98 107.16,4.7 106.5,4.57 105.84,4.45 104.95,4.28 104.53,4.21 104.1,4.13 103.22,4 102.56,3.91 101.89,3.82 100.93,3.7 100.42,3.64 99.9,3.58 99.05,3.51 98.51,3.47 97.98,3.43 96.9,3.37 96.11,3.33 95.32,3.3 94.05,3.27 93.3,3.28 c -0.75,0 -1.96,0.03 -2.67,0.06 z"
       id="path2" />
    <path
       class="shp0"
       d="M 97.31,8.78 C 97.18,8.79 96.85,8.85 96.57,8.91 96.3,8.96 95.88,9.08 95.64,9.18 95.4,9.27 95.14,9.4 95.07,9.47 95,9.53 94.87,9.81 94.79,10.08 c -0.09,0.27 -0.18,0.71 -0.22,0.99 -0.03,0.27 -0.1,1.07 -0.14,1.76 -0.05,0.83 -0.06,2.18 -0.04,3.87 0.02,1.47 0.09,3.04 0.14,3.6 0.06,0.55 0.14,1.15 0.2,1.33 0.06,0.2 0.21,0.47 0.39,0.66 0.16,0.18 0.41,0.41 0.55,0.51 0.15,0.1 0.46,0.25 0.7,0.34 0.41,0.14 0.6,0.15 3.21,0.21 1.53,0.03 3.54,0.07 4.48,0.07 l 1.7,0.01 c 0.72,-0.34 0.79,-0.41 0.91,-0.68 0.07,-0.17 0.22,-0.84 0.33,-1.48 0.11,-0.64 0.3,-1.55 0.43,-2.02 0.13,-0.47 0.24,-0.87 0.24,-0.9 0,-0.03 -0.76,-0.09 -1.69,-0.14 -0.93,-0.04 -1.91,-0.1 -2.19,-0.12 l -0.5,-0.04 -0.45,2.45 c -1.36,0.2 -2.03,0.26 -2.36,0.26 -0.34,0 -0.71,-0.04 -0.86,-0.09 -0.15,-0.05 -0.38,-0.19 -0.51,-0.31 -0.12,-0.11 -0.3,-0.36 -0.38,-0.55 -0.1,-0.22 -0.18,-0.61 -0.23,-1.06 -0.05,-0.48 -0.06,-1.51 -0.03,-3.08 0.03,-1.5 0.08,-2.63 0.14,-3.07 0.05,-0.39 0.1,-0.72 0.1,-0.75 0,-0.03 0.91,-0.05 2.01,-0.05 1.1,0 2,0.02 2,0.05 0,0.03 0.07,0.62 0.15,1.32 0.08,0.69 0.14,1.27 0.15,1.28 0,0 1.04,0.07 2.31,0.15 1.27,0.07 2.31,0.12 2.32,0.12 0.01,-0.01 -0.07,-0.29 -0.18,-0.62 -0.1,-0.33 -0.24,-0.89 -0.29,-1.23 -0.06,-0.35 -0.15,-0.95 -0.22,-1.34 -0.06,-0.38 -0.18,-0.91 -0.28,-1.16 -0.09,-0.26 -0.21,-0.55 -0.26,-0.65 -0.06,-0.12 -0.15,-0.2 -0.27,-0.21 -0.1,-0.01 -0.58,-0.11 -1.05,-0.2 -0.48,-0.1 -1.25,-0.23 -1.71,-0.28 -0.46,-0.06 -1.32,-0.15 -1.9,-0.2 C 100.9,8.78 99.77,8.74 98.98,8.74 98.19,8.75 97.44,8.77 97.31,8.78 Z M 84.85,9.05 c -3.09,0.1 -5.63,0.17 -5.64,0.18 0,0 0.11,0.36 0.25,0.8 0.14,0.44 0.32,1.07 0.4,1.4 0.08,0.33 0.2,0.96 0.28,1.4 0.07,0.44 0.16,1.25 0.2,1.8 0.05,0.59 0.06,1.54 0.04,2.3 -0.02,0.72 -0.09,1.66 -0.14,2.1 -0.06,0.44 -0.17,1.15 -0.24,1.57 -0.08,0.42 -0.23,1.11 -0.34,1.53 -0.1,0.42 -0.25,0.95 -0.33,1.17 -0.07,0.22 -0.11,0.41 -0.09,0.43 0.02,0.02 1.29,-0.03 2.82,-0.12 1.53,-0.08 2.89,-0.16 3.02,-0.18 l 0.23,-0.04 c -0.59,-1.21 -0.83,-1.8 -0.9,-2.09 -0.1,-0.37 -0.14,-0.75 -0.15,-1.23 0,-0.42 0.04,-0.89 0.11,-1.17 0.06,-0.26 0.12,-0.48 0.14,-0.5 0.03,-0.02 0.4,-0.03 0.82,-0.03 0.62,0 0.89,0.04 1.29,0.16 0.27,0.08 0.74,0.26 1.03,0.39 0.3,0.12 0.6,0.25 0.69,0.29 l 0.15,0.06 c 0,-4.58 -0.02,-5.14 -0.09,-5.14 -0.04,0 -0.41,0.2 -0.81,0.44 -0.41,0.24 -0.91,0.5 -1.11,0.58 -0.31,0.12 -0.5,0.14 -1.21,0.15 -0.47,0 -0.86,-0.01 -0.88,-0.03 -0.02,-0.02 -0.05,-0.77 -0.08,-1.67 l -0.04,-1.63 c 0.81,-0.23 1.33,-0.35 1.68,-0.41 0.45,-0.08 0.88,-0.1 1.5,-0.08 0.7,0.03 0.97,0.07 1.41,0.21 0.29,0.09 0.97,0.4 1.52,0.67 0.54,0.28 1.01,0.51 1.05,0.51 0.04,0 0.06,-0.71 0.06,-2 v -2 c -0.8,0.01 -3.56,0.09 -6.64,0.18 z"
       id="path3" />
    <path
       class="shp2"
       d="m 115.41,21.39 0.01,2.98 c 5.05,0.97 7.27,1.41 8.19,1.6 0.92,0.2 2.6,0.57 3.74,0.83 1.14,0.27 2.96,0.7 4.04,0.97 1.09,0.27 2.74,0.7 3.68,0.96 0.94,0.25 2.26,0.63 2.94,0.83 0.68,0.2 2.53,0.74 4.11,1.2 1.58,0.46 3.48,1 4.21,1.2 0.74,0.2 1.82,0.48 2.41,0.63 0.59,0.15 1.64,0.39 2.34,0.54 0.7,0.14 1.6,0.31 2,0.37 0.41,0.05 0.75,0.09 0.77,0.07 0.02,-0.02 -0.07,-0.07 -0.2,-0.13 -0.13,-0.05 -0.82,-0.35 -1.54,-0.67 -0.71,-0.32 -2.37,-1.05 -3.67,-1.62 -1.31,-0.56 -3.68,-1.58 -5.28,-2.25 -1.6,-0.67 -4.31,-1.8 -6.02,-2.5 -1.71,-0.7 -4.31,-1.76 -5.78,-2.35 -1.47,-0.58 -3.29,-1.3 -4.04,-1.6 -0.76,-0.29 -2.09,-0.8 -2.98,-1.13 -0.88,-0.33 -2.49,-0.91 -3.57,-1.29 -1.09,-0.37 -2.35,-0.79 -2.81,-0.93 -0.46,-0.14 -1.22,-0.35 -1.69,-0.47 l -0.86,-0.22 z m -45,-2.73 c -0.48,0.1 -1.37,0.33 -1.97,0.5 -0.61,0.17 -1.75,0.54 -2.54,0.8 -0.79,0.27 -2.09,0.73 -2.88,1.03 -0.79,0.29 -2.05,0.77 -2.8,1.08 -0.76,0.3 -2.31,0.93 -3.44,1.41 -1.14,0.48 -2.71,1.15 -3.48,1.49 -0.77,0.34 -5.61,2.36 -10.76,4.5 -5.15,2.13 -9.39,3.9 -9.42,3.93 -0.04,0.04 0.06,0.07 0.27,0.07 0.18,0 0.84,-0.11 1.46,-0.23 0.63,-0.13 1.88,-0.41 2.78,-0.64 0.9,-0.22 2.15,-0.54 2.77,-0.71 0.63,-0.16 3.36,-0.92 6.08,-1.69 2.83,-0.79 6.1,-1.66 7.62,-2.03 1.47,-0.35 4.87,-1.1 7.55,-1.67 2.69,-0.57 5.97,-1.29 7.29,-1.6 1.32,-0.31 2.43,-0.57 2.45,-0.57 0.03,0 0.05,-1.32 0.05,-2.93 0,-2.31 -0.01,-2.93 -0.08,-2.93 -0.04,0.01 -0.47,0.09 -0.95,0.19 z"
       id="path4" />
    <path
       class="shp0"
       d="m 85.21,25.64 c -1.12,0.04 -2.18,0.08 -2.35,0.09 h -0.32 c -2.53,2.92 -3.26,3.78 -3.25,3.79 0,0.01 0.96,-0.03 2.13,-0.09 1.17,-0.05 2.23,-0.1 2.37,-0.1 0.23,0 0.45,-0.15 2.49,-1.8 1.23,-0.99 2.28,-1.85 2.34,-1.9 0.08,-0.08 0,-0.1 -0.64,-0.09 -0.4,0.01 -1.65,0.05 -2.77,0.1 z m 12.54,6.28 c 0.17,0.32 0.47,0.88 0.66,1.25 0.19,0.36 0.4,0.89 0.47,1.16 0.13,0.48 0.13,0.81 0.13,8.6 v 8.1 c -0.23,0.8 -0.38,1.19 -0.47,1.39 -0.1,0.19 -0.3,0.54 -0.46,0.78 -0.15,0.24 -0.35,0.56 -0.43,0.72 -0.07,0.15 -0.13,0.29 -0.12,0.3 0.01,0.02 1.98,0.1 4.39,0.2 2.41,0.1 4.39,0.16 4.4,0.14 0,-0.01 -0.23,-0.48 -0.52,-1.04 -0.29,-0.56 -0.61,-1.22 -0.7,-1.47 -0.09,-0.25 -0.2,-0.59 -0.25,-0.77 -0.04,-0.2 -0.07,-1.28 -0.08,-2.96 -0.01,-2.32 0,-2.65 0.09,-2.65 0.06,0 0.87,0.05 1.82,0.12 0.94,0.06 1.74,0.14 1.78,0.18 0.03,0.03 0.14,0.3 0.25,0.6 0.1,0.29 0.43,1.07 0.73,1.73 0.3,0.66 0.69,1.54 0.86,1.97 0.16,0.42 0.36,1 0.44,1.3 0.08,0.29 0.14,0.71 0.14,0.93 -0.01,0.24 -0.06,0.51 -0.13,0.67 -0.06,0.14 -0.25,0.46 -0.41,0.7 -0.16,0.24 -0.34,0.56 -0.41,0.71 -0.07,0.16 -0.12,0.3 -0.11,0.31 0.01,0.01 0.59,0.09 1.29,0.17 0.7,0.07 2.76,0.3 4.58,0.51 1.82,0.2 3.31,0.35 3.32,0.33 0.01,-0.02 -0.34,-0.61 -0.77,-1.32 -0.43,-0.7 -1.01,-1.67 -1.28,-2.15 -0.27,-0.47 -0.77,-1.42 -1.1,-2.1 -0.34,-0.67 -0.84,-1.81 -1.13,-2.53 -0.28,-0.71 -0.51,-1.32 -0.51,-1.35 0,-0.03 0.47,-0.28 1.05,-0.56 0.88,-0.42 1.12,-0.57 1.42,-0.88 0.29,-0.29 0.4,-0.47 0.5,-0.78 0.12,-0.36 0.13,-0.68 0.15,-3.8 0.02,-2.26 0,-3.68 -0.05,-4.23 -0.04,-0.46 -0.13,-1.01 -0.2,-1.23 -0.07,-0.22 -0.24,-0.58 -0.39,-0.8 -0.15,-0.22 -0.38,-0.51 -0.52,-0.65 -0.14,-0.13 -0.44,-0.34 -0.66,-0.47 -0.22,-0.12 -0.53,-0.27 -0.7,-0.33 -0.17,-0.06 -0.48,-0.16 -0.7,-0.21 -0.22,-0.06 -0.6,-0.13 -0.84,-0.17 -0.24,-0.04 -0.85,-0.11 -1.37,-0.17 -0.51,-0.06 -1.85,-0.18 -2.97,-0.27 -1.12,-0.09 -2.72,-0.21 -3.54,-0.27 -0.83,-0.05 -2.41,-0.14 -3.51,-0.2 -1.11,-0.05 -2.56,-0.1 -3.24,-0.1 h -1.22 z m -14.93,-0.26 -4.43,0.17 c -0.45,1.4 -0.73,2.28 -0.89,2.87 -0.17,0.59 -0.43,1.55 -0.57,2.13 -0.15,0.59 -0.65,2.81 -1.13,4.94 -0.48,2.12 -1.01,4.42 -1.18,5.1 -0.17,0.67 -0.44,1.68 -0.6,2.23 -0.16,0.55 -0.46,1.48 -0.66,2.07 -0.2,0.58 -0.54,1.47 -0.75,1.96 -0.21,0.5 -0.54,1.23 -0.74,1.62 -0.36,0.71 -0.36,0.72 -0.19,0.72 0.09,0 1.99,-0.19 4.23,-0.41 2.23,-0.22 4.06,-0.42 4.07,-0.43 0.01,-0.02 -0.14,-0.41 -0.34,-0.88 -0.2,-0.47 -0.41,-1.04 -0.47,-1.28 -0.06,-0.24 -0.11,-0.65 -0.11,-0.9 0,-0.26 0.05,-0.73 0.1,-1.05 l 0.1,-0.59 c 0.39,-0.1 0.72,-0.17 0.97,-0.22 0.26,-0.06 0.83,-0.15 1.27,-0.21 0.53,-0.08 1.47,-0.12 2.78,-0.14 1.46,-0.03 2.09,-0.01 2.43,0.05 l 0.47,0.09 c 0.13,0.72 0.17,1.2 0.17,1.53 0,0.39 -0.04,0.78 -0.12,1.1 -0.07,0.28 -0.3,0.84 -0.51,1.25 -0.2,0.42 -0.36,0.77 -0.35,0.79 0,0.02 1.93,0.01 4.27,-0.02 4.22,-0.05 4.26,-0.05 4.22,-0.18 -0.02,-0.08 -0.27,-0.54 -0.56,-1.04 -0.28,-0.49 -0.62,-1.11 -0.75,-1.36 -0.12,-0.26 -0.29,-0.64 -0.37,-0.84 -0.08,-0.2 -0.23,-0.68 -0.34,-1.06 -0.11,-0.39 -0.53,-1.98 -0.94,-3.54 -0.4,-1.55 -1.17,-4.52 -1.7,-6.6 -0.53,-2.07 -1.21,-4.73 -1.52,-5.91 l -0.56,-2.15 c -0.67,0.01 -2.86,0.09 -5.3,0.19 z m -13.21,1.25 c -0.52,0.09 -2.46,0.42 -4.31,0.73 -1.86,0.31 -3.42,0.58 -3.46,0.6 -0.06,0.02 -0.04,0.11 0.08,0.31 0.1,0.16 0.31,0.55 0.47,0.87 0.17,0.32 0.36,0.74 0.44,0.93 0.07,0.19 0.2,0.63 0.29,0.98 0.09,0.35 0.19,0.88 0.23,1.17 0.04,0.34 0.06,2.79 0.04,6.8 -0.02,5.58 -0.03,6.31 -0.13,6.67 -0.06,0.22 -0.16,0.5 -0.22,0.63 -0.06,0.13 -0.23,0.35 -0.38,0.5 -0.15,0.15 -0.45,0.36 -0.67,0.48 -0.22,0.11 -0.67,0.3 -1,0.41 -0.34,0.11 -0.85,0.25 -1.14,0.31 -0.29,0.06 -0.84,0.13 -1.2,0.15 -0.43,0.02 -0.78,0.01 -0.97,-0.04 -0.26,-0.07 -0.32,-0.12 -0.46,-0.4 -0.09,-0.17 -0.2,-0.53 -0.25,-0.81 -0.05,-0.28 -0.13,-0.99 -0.17,-1.6 -0.05,-0.75 -0.06,-2 -0.02,-3.93 0.03,-1.56 0.06,-4.04 0.06,-5.5 0.01,-2.2 0.03,-2.77 0.12,-3.24 0.06,-0.31 0.19,-0.82 0.29,-1.13 0.1,-0.31 0.4,-1 0.67,-1.53 0.27,-0.54 0.48,-0.98 0.47,-0.99 0,-0.01 -1.97,0.5 -4.36,1.13 -2.38,0.63 -4.35,1.16 -4.37,1.17 -0.02,0.01 0.08,0.26 0.22,0.54 0.14,0.28 0.46,0.84 0.7,1.25 0.24,0.4 0.48,0.85 0.52,1 0.04,0.14 0.1,0.56 0.13,0.93 0.02,0.37 0.01,3.32 -0.03,6.57 -0.05,4.07 -0.05,6.35 -0.01,7.36 0.04,0.81 0.1,1.74 0.14,2.07 0.04,0.33 0.13,0.87 0.2,1.2 0.13,0.6 0.13,0.6 0.38,0.68 0.14,0.04 0.46,0.12 0.72,0.16 0.29,0.05 0.8,0.06 1.34,0.04 0.55,-0.02 1.15,-0.1 1.64,-0.2 0.42,-0.1 1.05,-0.26 1.4,-0.37 0.35,-0.1 1.27,-0.39 2.04,-0.64 0.77,-0.25 2.51,-0.74 3.87,-1.11 1.36,-0.36 2.79,-0.76 3.18,-0.9 0.38,-0.13 0.87,-0.33 1.07,-0.43 0.2,-0.11 0.53,-0.34 0.73,-0.52 0.22,-0.19 0.46,-0.49 0.58,-0.72 0.12,-0.21 0.26,-0.58 0.33,-0.82 0.06,-0.24 0.15,-0.78 0.2,-1.2 0.07,-0.57 0.09,-1.8 0.09,-4.8 0,-2.22 -0.03,-5.25 -0.06,-6.74 -0.04,-1.77 -0.04,-2.96 0,-3.46 0.04,-0.43 0.14,-1.06 0.24,-1.4 0.09,-0.35 0.32,-1 0.51,-1.44 0.18,-0.44 0.45,-1.03 0.6,-1.31 0.14,-0.29 0.25,-0.54 0.25,-0.55 0,-0.02 -0.02,-0.03 -0.05,-0.03 -0.02,0 -0.47,0.08 -0.98,0.17 z m 52.34,1.37 c 0.13,0.31 0.38,0.91 0.56,1.35 0.19,0.47 0.4,1.14 0.5,1.6 0.15,0.73 0.17,1.03 0.23,3.27 0.04,1.36 0.08,3.55 0.11,4.87 0.03,1.52 0.01,3.02 -0.04,4.1 -0.04,0.93 -0.12,2.07 -0.17,2.53 -0.06,0.46 -0.17,1.13 -0.24,1.5 -0.08,0.37 -0.21,0.89 -0.3,1.17 -0.08,0.27 -0.32,0.77 -0.53,1.11 -0.2,0.34 -0.36,0.63 -0.35,0.64 0.01,0.01 0.86,0.28 1.89,0.6 1.03,0.32 3.06,0.91 4.51,1.32 1.45,0.4 3.93,1.08 5.51,1.5 1.58,0.43 3.54,0.92 4.35,1.1 0.81,0.18 1.47,0.32 1.48,0.31 0,-0.01 0.02,-1.24 0.05,-2.73 0.02,-1.5 0.02,-2.72 -0.01,-2.72 -0.03,0 -0.31,0.09 -0.62,0.19 -0.31,0.11 -0.81,0.25 -1.1,0.31 -0.3,0.06 -0.88,0.13 -1.31,0.15 -0.44,0.02 -1.04,0 -1.43,-0.05 -0.37,-0.04 -1.03,-0.17 -1.47,-0.28 -0.44,-0.11 -1.51,-0.43 -2.38,-0.72 -0.86,-0.29 -1.72,-0.59 -1.9,-0.66 l -0.33,-0.13 c -0.09,-4.42 -0.09,-5.73 -0.07,-5.74 0.02,-0.02 0.29,0 0.59,0.05 0.3,0.04 0.77,0.14 1.05,0.2 0.27,0.07 0.72,0.23 1,0.36 0.38,0.17 0.76,0.44 1.56,1.12 0.59,0.5 1.07,0.92 1.09,0.95 0.01,0.03 0.14,0.12 0.29,0.22 0.15,0.09 0.28,0.16 0.29,0.15 0.02,-0.01 0.05,-1.64 0.08,-3.62 0.04,-3.08 0.04,-3.59 -0.04,-3.56 -0.05,0.03 -0.53,0.17 -1.07,0.32 -0.53,0.16 -1.22,0.32 -1.53,0.36 -0.51,0.07 -0.65,0.06 -1.31,-0.08 -0.4,-0.08 -1.01,-0.24 -1.35,-0.35 l -0.62,-0.19 v -5.6 c 0.6,0.06 1.12,0.12 1.54,0.18 0.42,0.05 1.08,0.17 1.47,0.26 0.39,0.09 0.88,0.22 1.1,0.29 0.22,0.07 0.6,0.2 0.84,0.29 0.24,0.09 0.7,0.29 1.03,0.44 0.33,0.16 0.86,0.44 1.17,0.63 0.32,0.19 0.81,0.52 1.11,0.74 0.29,0.21 0.84,0.69 1.22,1.06 l 0.68,0.68 c 0,-2.23 0.02,-3.47 0.05,-4.2 l 0.04,-1.34 c -0.82,-0.32 -1.58,-0.58 -2.23,-0.79 -0.64,-0.21 -1.81,-0.57 -2.6,-0.8 -0.8,-0.24 -2.06,-0.59 -2.81,-0.8 -0.76,-0.2 -1.85,-0.49 -2.44,-0.63 -0.59,-0.15 -1.67,-0.4 -2.41,-0.57 -0.73,-0.16 -1.72,-0.37 -2.2,-0.47 -0.48,-0.09 -1.25,-0.23 -1.71,-0.3 -0.46,-0.08 -0.88,-0.14 -0.95,-0.14 -0.09,0 -0.07,0.09 0.13,0.55 z"
       id="path5" />
    <path
       class="shp1"
       d="m 83.06,35.48 c -0.1,0.16 -0.27,0.52 -0.38,0.8 -0.12,0.29 -0.31,0.87 -0.45,1.3 -0.13,0.43 -0.37,1.33 -0.53,1.99 -0.17,0.66 -0.49,2.16 -0.73,3.33 -0.23,1.17 -0.44,2.23 -0.46,2.35 l -0.04,0.22 c 0.54,-0.05 1.69,-0.1 2.9,-0.14 1.22,-0.05 2.23,-0.09 2.24,-0.11 0.02,-0.02 0.03,-0.38 0.03,-0.81 C 85.63,43.8 85.58,43.39 85.39,42.47 85.26,41.83 85.04,40.89 84.92,40.4 84.79,39.91 84.5,38.88 84.28,38.13 84.05,37.38 83.73,36.42 83.56,36 c -0.16,-0.42 -0.3,-0.78 -0.31,-0.79 -0.01,-0.01 -0.1,0.11 -0.19,0.27 z m 21.74,3.05 -0.01,3.27 c 0.39,0.1 0.9,0.2 1.37,0.29 0.48,0.09 1.17,0.2 1.53,0.24 0.35,0.04 0.96,0.07 1.33,0.07 0.38,0 0.9,-0.05 1.15,-0.1 0.26,-0.06 0.59,-0.17 0.74,-0.25 0.16,-0.09 0.31,-0.25 0.38,-0.38 0.06,-0.13 0.17,-0.46 0.23,-0.74 0.1,-0.39 0.12,-0.77 0.12,-1.76 0,-1.02 -0.02,-1.36 -0.12,-1.7 -0.07,-0.24 -0.18,-0.54 -0.24,-0.67 -0.07,-0.13 -0.24,-0.35 -0.4,-0.48 -0.15,-0.14 -0.35,-0.3 -0.45,-0.35 -0.11,-0.05 -0.38,-0.15 -0.62,-0.23 -0.24,-0.07 -0.71,-0.18 -1.04,-0.23 -0.33,-0.06 -1.07,-0.12 -1.64,-0.14 -0.57,-0.02 -1.32,-0.05 -1.68,-0.07 l -0.65,-0.04 z"
       id="path6" />
    <path
       class="shp0"
       d="m 38.9,40.47 c -4.14,1.02 -7.6,1.87 -7.69,1.88 l -0.17,0.04 c -0.07,4.17 -0.09,5.38 -0.08,5.39 0.01,0.01 0.24,-0.12 0.52,-0.3 0.3,-0.2 0.69,-0.53 0.97,-0.85 0.32,-0.35 0.61,-0.6 0.87,-0.74 0.22,-0.12 0.68,-0.31 1.03,-0.42 0.35,-0.12 0.98,-0.3 1.41,-0.4 0.42,-0.11 1.32,-0.32 2,-0.47 0.68,-0.15 1.35,-0.3 1.49,-0.34 L 39.5,44.2 v 15.6 c -0.75,0.35 -1.29,0.56 -1.67,0.7 -0.39,0.13 -0.88,0.28 -1.11,0.33 -0.22,0.05 -0.62,0.11 -0.9,0.14 C 35.51,61 35.19,60.99 34.99,60.94 34.8,60.9 34.52,60.78 34.35,60.68 34.16,60.56 33.99,60.37 33.87,60.16 33.73,59.92 33.68,59.7 33.64,59.3 c -0.02,-0.37 0,-0.73 0.07,-1.15 0.06,-0.34 0.23,-0.98 0.37,-1.43 0.15,-0.45 0.26,-0.83 0.26,-0.83 -0.01,-0.01 -1.21,0.13 -2.66,0.31 -1.45,0.18 -2.98,0.36 -3.4,0.41 -0.42,0.05 -0.79,0.11 -0.82,0.12 -0.04,0.02 -0.01,0.27 0.07,0.57 0.07,0.29 0.21,0.95 0.3,1.47 0.09,0.51 0.23,1.56 0.31,2.33 0.08,0.77 0.2,1.66 0.26,1.97 0.07,0.31 0.2,0.71 0.29,0.9 0.09,0.18 0.29,0.44 0.43,0.58 0.14,0.13 0.42,0.32 0.62,0.41 0.2,0.09 0.61,0.2 0.9,0.25 0.34,0.04 0.91,0.06 1.54,0.03 0.55,-0.02 1.48,-0.09 2.07,-0.14 0.59,-0.06 1.49,-0.16 2.01,-0.24 0.51,-0.07 1.29,-0.21 1.73,-0.3 0.45,-0.09 1.21,-0.28 1.71,-0.43 0.5,-0.15 1.2,-0.42 1.57,-0.59 0.37,-0.17 0.85,-0.44 1.07,-0.58 0.22,-0.15 0.59,-0.45 0.83,-0.67 0.23,-0.21 0.56,-0.57 0.72,-0.79 0.17,-0.22 0.41,-0.64 0.55,-0.93 0.14,-0.3 0.32,-0.75 0.4,-1 0.08,-0.26 0.21,-0.86 0.29,-1.34 0.13,-0.77 0.14,-1.1 0.14,-3 -0.01,-1.17 -0.06,-3.14 -0.12,-4.36 -0.06,-1.23 -0.1,-3.35 -0.1,-4.72 0,-1.37 0.03,-2.85 0.07,-3.3 0.04,-0.45 0.15,-1.06 0.23,-1.37 0.09,-0.3 0.42,-1.05 0.73,-1.66 0.31,-0.62 0.57,-1.14 0.57,-1.17 0,-0.03 -0.05,-0.05 -0.12,-0.04 -0.06,0 -3.5,0.84 -7.63,1.86 z m 104.37,0.67 c -0.02,0.9 -0.05,2.13 -0.05,2.74 0,0.62 0.02,1.12 0.04,1.12 0.02,0 0.31,-0.11 0.65,-0.24 0.34,-0.13 0.95,-0.33 1.35,-0.44 0.46,-0.12 0.99,-0.21 1.41,-0.23 0.4,-0.03 0.92,-0.01 1.3,0.04 0.35,0.05 1.09,0.21 1.64,0.37 0.55,0.16 1.31,0.4 1.7,0.54 0.39,0.14 0.71,0.25 0.72,0.25 0.01,0.01 -0.2,0.46 -0.46,1.01 -0.26,0.55 -0.7,1.42 -0.98,1.93 -0.27,0.52 -0.85,1.54 -1.27,2.27 -0.42,0.73 -1.44,2.46 -2.25,3.83 -0.82,1.38 -1.77,2.98 -2.11,3.57 -0.34,0.59 -0.89,1.56 -1.22,2.17 -0.33,0.6 -0.65,1.23 -0.72,1.4 -0.06,0.16 -0.17,0.41 -0.22,0.55 l -0.11,0.25 c 1.22,0.5 2.01,0.79 2.54,0.95 0.53,0.17 1.51,0.44 2.17,0.6 0.66,0.17 1.75,0.41 2.41,0.54 0.66,0.13 1.73,0.33 2.37,0.44 0.64,0.11 1.83,0.27 2.64,0.37 0.96,0.11 2.04,0.19 3.12,0.22 l 1.66,0.04 v -5.5 c -0.49,0.21 -0.93,0.49 -1.28,0.76 -0.36,0.26 -0.81,0.54 -1.01,0.61 -0.31,0.12 -0.51,0.13 -1.59,0.13 -1.09,-0.01 -1.38,-0.03 -2.44,-0.22 -0.66,-0.12 -1.47,-0.26 -1.8,-0.32 -0.33,-0.05 -0.69,-0.09 -0.79,-0.09 -0.1,0 -0.2,-0.03 -0.21,-0.07 -0.02,-0.03 0.04,-0.28 0.13,-0.55 0.1,-0.26 0.47,-1.06 0.84,-1.78 0.36,-0.72 1.29,-2.44 2.07,-3.83 0.78,-1.4 2.08,-3.72 2.88,-5.17 0.81,-1.45 1.7,-3.1 1.98,-3.67 0.27,-0.57 0.68,-1.46 0.89,-2 0.21,-0.53 0.38,-0.97 0.38,-0.98 -0.01,-0.01 -0.42,-0.09 -0.92,-0.18 -0.5,-0.09 -1.52,-0.26 -2.27,-0.37 -0.76,-0.1 -1.76,-0.26 -2.24,-0.33 -0.48,-0.08 -1.47,-0.26 -2.21,-0.4 -0.73,-0.15 -2.27,-0.54 -3.41,-0.86 -1.14,-0.33 -2.5,-0.69 -3.04,-0.81 -0.53,-0.12 -1.25,-0.23 -1.6,-0.25 l -0.64,-0.03 z"
       id="path7" />
    <path
       class="shp2"
       d="m 97.43,57.92 c 0.06,0.17 0.21,0.46 0.31,0.65 0.11,0.18 0.33,0.48 0.5,0.66 0.17,0.17 0.76,0.66 1.31,1.07 0.85,0.63 1.05,0.81 1.31,1.2 0.18,0.26 0.38,0.63 0.45,0.83 0.06,0.2 0.14,0.47 0.17,0.59 0.04,0.2 0.03,0.22 -0.23,0.31 -0.17,0.07 -0.5,0.1 -0.92,0.1 -0.38,0 -1.06,-0.07 -1.65,-0.16 -0.55,-0.1 -1.33,-0.2 -1.74,-0.25 -0.44,-0.04 -1.22,-0.06 -1.97,-0.03 -0.68,0.02 -1.7,0.1 -2.27,0.18 -0.57,0.07 -1.44,0.21 -1.94,0.3 -0.5,0.09 -1.44,0.3 -2.11,0.46 -0.66,0.16 -1.77,0.46 -2.47,0.66 -0.7,0.2 -2.32,0.68 -3.61,1.07 -1.28,0.38 -2.94,0.86 -3.67,1.07 -0.74,0.2 -1.7,0.45 -2.14,0.56 -0.44,0.11 -1.24,0.29 -1.77,0.4 -0.54,0.11 -1.38,0.26 -1.87,0.33 -0.5,0.08 -1.33,0.17 -1.84,0.22 -0.58,0.05 -1.43,0.06 -2.24,0.04 -0.72,-0.02 -1.67,-0.09 -2.11,-0.14 -0.44,-0.05 -1.17,-0.16 -1.63,-0.24 -0.46,-0.08 -1.31,-0.24 -1.88,-0.37 -0.56,-0.12 -1.72,-0.4 -2.57,-0.62 -0.84,-0.22 -1.55,-0.39 -1.57,-0.37 -0.02,0.01 0.07,0.2 0.19,0.41 0.13,0.21 0.38,0.59 0.57,0.85 0.2,0.26 0.59,0.68 0.88,0.94 0.29,0.25 0.71,0.59 0.93,0.74 0.22,0.14 0.63,0.39 0.91,0.54 0.27,0.15 0.86,0.41 1.3,0.58 0.44,0.17 1.15,0.41 1.57,0.54 0.42,0.12 1.04,0.28 1.37,0.35 0.33,0.08 1.04,0.21 1.57,0.3 0.53,0.1 1.57,0.25 2.31,0.34 0.73,0.09 2.43,0.27 3.77,0.41 1.34,0.14 2.46,0.27 2.49,0.3 0.03,0.03 -0.09,0.26 -0.26,0.51 -0.18,0.24 -0.67,0.79 -1.09,1.22 -0.42,0.42 -1.09,1.04 -1.49,1.37 -0.4,0.33 -1.09,0.85 -1.54,1.17 -0.45,0.32 -1.26,0.85 -1.82,1.18 -0.55,0.33 -1.25,0.73 -1.57,0.89 -0.31,0.17 -0.9,0.44 -1.3,0.62 -0.4,0.17 -1.1,0.44 -1.54,0.58 -0.44,0.15 -1.48,0.4 -2.34,0.56 -0.84,0.16 -1.8,0.36 -2.14,0.44 -0.33,0.08 -0.85,0.25 -1.16,0.37 -0.32,0.13 -0.6,0.25 -0.63,0.27 -0.02,0.03 0.26,0.16 0.64,0.29 0.38,0.14 0.85,0.3 1.05,0.35 0.21,0.06 0.72,0.17 1.14,0.25 0.64,0.12 1.02,0.15 2.24,0.15 1.07,0 1.68,-0.03 2.24,-0.11 0.42,-0.07 1.05,-0.18 1.4,-0.26 0.35,-0.07 1.01,-0.24 1.47,-0.37 0.46,-0.13 1.26,-0.38 1.77,-0.57 0.52,-0.18 1.42,-0.54 2.01,-0.79 0.59,-0.26 1.58,-0.73 2.2,-1.06 0.63,-0.32 2.36,-1.28 3.85,-2.13 1.49,-0.85 3.26,-1.83 3.94,-2.17 0.68,-0.34 1.57,-0.75 1.97,-0.92 0.41,-0.17 1.05,-0.41 1.44,-0.54 0.38,-0.14 1.22,-0.38 1.85,-0.54 0.64,-0.17 1.67,-0.39 2.31,-0.5 0.63,-0.1 1.74,-0.26 2.46,-0.33 0.71,-0.08 1.46,-0.16 1.67,-0.19 l 0.36,-0.05 c -1.55,-0.81 -2.48,-1.3 -3.07,-1.6 -0.59,-0.31 -1.3,-0.64 -1.57,-0.75 -0.28,-0.11 -0.8,-0.28 -1.17,-0.37 -0.37,-0.09 -1.05,-0.22 -1.5,-0.28 -0.61,-0.08 -1.51,-0.12 -3.23,-0.14 -1.31,-0.01 -2.39,-0.05 -2.39,-0.07 0,-0.03 0.2,-0.16 0.45,-0.3 0.25,-0.13 0.75,-0.36 1.12,-0.51 0.37,-0.14 1.05,-0.37 1.51,-0.5 0.46,-0.13 1.19,-0.31 1.63,-0.4 0.44,-0.1 1.19,-0.23 1.66,-0.31 0.47,-0.07 1.4,-0.19 2.07,-0.26 0.67,-0.07 2.11,-0.17 3.19,-0.21 1.44,-0.05 2.44,-0.06 3.71,0 0.96,0.04 2.2,0.11 2.77,0.17 0.57,0.06 1.46,0.16 1.97,0.24 0.52,0.08 1.38,0.23 1.91,0.34 0.53,0.1 1.36,0.31 1.84,0.45 0.48,0.15 1.18,0.39 1.57,0.55 0.38,0.16 0.93,0.42 1.2,0.58 0.3,0.17 0.48,0.31 0.44,0.34 -0.04,0.03 -0.48,0.3 -0.97,0.59 -0.5,0.3 -1.11,0.66 -1.37,0.82 -0.25,0.16 -0.61,0.43 -0.78,0.61 -0.18,0.17 -0.4,0.44 -0.49,0.6 -0.09,0.15 -0.23,0.45 -0.3,0.66 -0.1,0.27 -0.11,0.38 -0.05,0.36 0.04,-0.01 0.47,-0.15 0.95,-0.3 0.48,-0.15 1.32,-0.4 1.87,-0.54 0.55,-0.15 1.42,-0.35 1.94,-0.46 0.51,-0.11 1.46,-0.28 2.1,-0.37 0.65,-0.09 1.67,-0.2 2.28,-0.24 0.62,-0.05 1.62,-0.06 2.3,-0.04 0.66,0.02 1.58,0.09 2.04,0.14 0.46,0.06 1.21,0.18 1.67,0.27 0.46,0.09 1.15,0.26 1.54,0.37 0.38,0.11 1.12,0.35 1.63,0.54 0.52,0.2 1.33,0.55 1.81,0.79 0.48,0.25 1.2,0.65 1.6,0.91 0.41,0.25 1.04,0.68 1.41,0.95 0.36,0.27 0.94,0.73 1.27,1.01 0.33,0.29 0.98,0.9 1.45,1.37 0.46,0.48 1.17,1.25 1.57,1.73 0.39,0.48 2.41,2.76 4.47,5.07 2.06,2.31 4.17,4.6 4.69,5.09 0.67,0.65 1.12,1.16 1.61,1.82 0.37,0.5 0.68,0.94 0.68,0.97 0,0.02 -0.25,0.02 -0.55,-0.01 -0.31,-0.03 -0.84,-0.11 -1.19,-0.18 -0.35,-0.08 -1.48,-0.34 -2.51,-0.6 -1.03,-0.25 -2.19,-0.52 -2.57,-0.6 -0.39,-0.07 -1,-0.16 -1.37,-0.19 -0.42,-0.04 -0.82,-0.04 -1.07,0 -0.22,0.04 -0.39,0.08 -0.37,0.09 0.02,0.01 0.31,0.22 0.65,0.46 0.34,0.24 1.11,0.7 1.71,1.01 0.6,0.3 1.93,0.94 2.96,1.4 1.02,0.46 2.32,1.05 2.87,1.31 0.55,0.26 1.35,0.68 1.77,0.93 0.42,0.24 1.02,0.64 1.34,0.88 0.31,0.24 0.9,0.76 1.3,1.16 0.41,0.4 1.41,1.42 2.22,2.29 0.81,0.86 1.71,1.79 2,2.06 0.29,0.28 0.84,0.82 1.23,1.2 0.5,0.49 0.77,0.82 0.92,1.1 0.11,0.22 0.25,0.58 0.32,0.8 0.09,0.32 0.11,0.59 0.09,1.32 -0.02,0.73 -0.05,0.93 -0.13,0.98 -0.06,0.04 -0.34,0.13 -0.63,0.21 -0.3,0.08 -0.72,0.17 -0.94,0.2 -0.31,0.05 -0.48,0.04 -0.74,-0.03 -0.22,-0.07 -0.42,-0.2 -0.61,-0.39 -0.15,-0.16 -0.36,-0.47 -0.45,-0.69 -0.1,-0.22 -0.27,-0.74 -0.38,-1.16 -0.1,-0.43 -0.21,-0.78 -0.23,-0.79 -0.01,-0.01 -0.2,0.1 -0.41,0.23 -0.22,0.13 -0.55,0.38 -0.76,0.56 -0.2,0.17 -0.48,0.49 -0.63,0.7 -0.14,0.22 -0.33,0.59 -0.41,0.83 -0.1,0.28 -0.16,0.59 -0.16,0.87 0,0.24 0.05,0.6 0.1,0.81 0.06,0.21 0.17,0.53 0.26,0.7 0.09,0.18 0.27,0.46 0.4,0.62 0.13,0.16 0.43,0.46 0.66,0.65 0.23,0.2 0.64,0.47 0.92,0.61 0.28,0.14 0.7,0.32 0.94,0.39 0.23,0.08 0.58,0.16 0.76,0.19 0.17,0.03 0.33,0.07 0.34,0.09 0.01,0.02 -0.19,0.91 -0.44,1.97 -0.25,1.06 -0.46,1.97 -0.46,2.02 0,0.05 0.12,0.08 0.41,0.08 0.23,0 0.62,-0.03 0.86,-0.07 0.23,-0.04 0.64,-0.14 0.9,-0.23 0.26,-0.09 0.68,-0.29 0.93,-0.45 0.26,-0.15 0.92,-0.64 1.47,-1.07 0.56,-0.44 1.17,-0.95 1.37,-1.14 0.19,-0.19 0.43,-0.49 0.51,-0.67 0.09,-0.19 0.16,-0.43 0.16,-0.54 0,-0.11 -0.07,-0.47 -0.16,-0.8 -0.08,-0.33 -0.23,-0.78 -0.31,-1.01 l -0.16,-0.41 c 0.25,-0.45 0.53,-0.89 0.79,-1.28 0.25,-0.38 0.55,-0.88 0.65,-1.1 0.1,-0.22 0.22,-0.59 0.27,-0.83 0.05,-0.27 0.06,-0.67 0.04,-1.07 -0.02,-0.34 -0.09,-0.81 -0.15,-1.03 -0.06,-0.22 -0.22,-0.64 -0.37,-0.93 -0.14,-0.3 -0.45,-0.79 -0.69,-1.1 -0.23,-0.31 -0.78,-0.94 -1.23,-1.4 -0.44,-0.46 -1.36,-1.36 -2.05,-2 -0.72,-0.67 -2.58,-2.57 -4.34,-4.44 -1.69,-1.79 -3.29,-3.49 -3.54,-3.76 -0.25,-0.28 -0.66,-0.76 -0.9,-1.07 -0.24,-0.31 -0.66,-0.82 -0.94,-1.13 -0.27,-0.31 -0.86,-0.96 -1.31,-1.44 -0.45,-0.47 -1.24,-1.39 -1.77,-2.03 -0.53,-0.64 -1.25,-1.5 -1.6,-1.9 -0.36,-0.4 -0.87,-1 -1.15,-1.33 -0.27,-0.33 -1.36,-1.73 -2.4,-3.1 -1.05,-1.37 -2.23,-2.89 -2.63,-3.37 -0.4,-0.47 -1.18,-1.33 -1.74,-1.89 -0.55,-0.56 -1.38,-1.32 -1.84,-1.69 -0.46,-0.37 -1.09,-0.84 -1.41,-1.05 -0.31,-0.21 -0.8,-0.52 -1.1,-0.68 -0.29,-0.17 -0.85,-0.46 -1.24,-0.66 -0.38,-0.19 -0.97,-0.47 -1.3,-0.61 -0.33,-0.14 -0.95,-0.39 -1.37,-0.55 -0.42,-0.16 -1.05,-0.38 -1.4,-0.49 -0.35,-0.11 -0.94,-0.28 -1.31,-0.38 -0.36,-0.09 -0.9,-0.2 -1.2,-0.24 -0.31,-0.04 -0.8,-0.05 -1.17,-0.02 -0.5,0.03 -0.68,0.02 -0.83,-0.06 -0.11,-0.05 -1.14,-1.01 -2.28,-2.12 -1.31,-1.29 -2.34,-2.23 -2.8,-2.58 -0.49,-0.37 -1.05,-0.71 -1.67,-1.01 -0.52,-0.26 -1.3,-0.59 -1.74,-0.74 -0.44,-0.15 -1.47,-0.45 -2.27,-0.68 -0.81,-0.22 -2.17,-0.56 -3.01,-0.76 -0.85,-0.2 -2.91,-0.66 -4.6,-1.03 -1.68,-0.36 -3.07,-0.66 -3.09,-0.66 -0.01,0 0.02,0.14 0.09,0.32 z"
       id="path8" />
    <path
       class="shp1"
       d="m 103.46,60.83 c 0,0.02 0.04,0.24 0.1,0.49 0.06,0.24 0.18,0.69 0.27,0.98 0.1,0.29 0.31,0.82 0.48,1.17 0.25,0.52 0.39,0.72 0.84,1.17 0.33,0.31 0.71,0.62 0.95,0.74 0.22,0.12 1.03,0.42 1.8,0.68 0.77,0.27 1.71,0.63 2.07,0.8 0.37,0.18 1.03,0.57 1.47,0.85 0.45,0.29 0.84,0.55 0.89,0.58 0.06,0.03 0.07,-0.02 0.04,-0.21 -0.02,-0.13 -0.1,-0.44 -0.17,-0.68 -0.07,-0.24 -0.27,-0.7 -0.43,-1.03 -0.17,-0.33 -0.45,-0.8 -0.62,-1.04 -0.18,-0.24 -0.65,-0.75 -1.05,-1.13 -0.43,-0.42 -1.02,-0.9 -1.46,-1.19 -0.41,-0.27 -1.16,-0.69 -1.67,-0.94 -0.52,-0.25 -1.16,-0.54 -1.44,-0.64 -0.28,-0.1 -0.77,-0.26 -1.1,-0.36 -0.33,-0.1 -0.69,-0.2 -0.79,-0.23 -0.1,-0.02 -0.18,-0.03 -0.18,-0.01 z"
       id="path9" />
    <path
       class="shp2"
       d="m 16.24,65.22 c 0,0.04 1.2,5.75 2.68,12.68 1.47,6.93 2.71,12.76 2.75,12.95 l 0.08,0.35 c 0.88,-0.06 1.49,-0.1 1.91,-0.14 0.42,-0.04 1.1,-0.11 1.5,-0.17 0.41,-0.05 1.14,-0.17 1.64,-0.26 0.5,-0.1 1.32,-0.27 1.84,-0.4 0.51,-0.12 1.39,-0.36 1.95,-0.53 0.56,-0.16 1.4,-0.44 1.86,-0.6 l 0.83,-0.3 c -0.05,-0.34 -0.5,-3.24 -1.03,-6.67 -0.53,-3.43 -1,-6.4 -1.04,-6.6 -0.04,-0.2 -0.11,-0.53 -0.17,-0.73 -0.06,-0.2 -0.22,-0.57 -0.35,-0.83 -0.16,-0.29 -0.4,-0.6 -0.65,-0.83 -0.22,-0.21 -0.61,-0.51 -0.87,-0.68 -0.25,-0.17 -1.22,-0.73 -2.14,-1.23 -0.91,-0.5 -2.19,-1.22 -2.84,-1.58 -0.64,-0.37 -1.8,-1.06 -2.57,-1.54 -0.77,-0.48 -1.75,-1.08 -2.17,-1.33 -0.42,-0.26 -1.3,-0.74 -1.94,-1.06 -0.64,-0.32 -1.19,-0.59 -1.22,-0.59 -0.03,0 -0.05,0.04 -0.05,0.09 z m 153.65,0.24 c -0.39,0.17 -0.94,0.44 -1.24,0.6 -0.29,0.16 -0.95,0.53 -1.47,0.83 -0.51,0.29 -2.21,1.32 -3.77,2.3 -1.56,0.97 -3.46,2.1 -4.21,2.5 -0.76,0.4 -1.55,0.85 -1.77,1 -0.22,0.15 -0.55,0.41 -0.73,0.57 -0.18,0.17 -0.43,0.46 -0.55,0.66 -0.14,0.21 -0.28,0.57 -0.36,0.9 -0.08,0.3 -0.22,1.07 -0.33,1.71 -0.11,0.64 -0.34,2.07 -0.5,3.17 -0.17,1.1 -0.39,2.51 -0.5,3.13 -0.11,0.63 -0.37,2.01 -0.58,3.07 -0.2,1.06 -0.42,2.25 -0.47,2.63 -0.05,0.39 -0.09,1.01 -0.09,1.39 0,0.37 0.04,0.91 0.1,1.2 0.06,0.28 0.21,0.72 0.33,0.98 0.12,0.26 0.37,0.66 0.55,0.9 0.19,0.24 0.62,0.7 0.96,1.03 0.34,0.33 0.76,0.74 0.93,0.9 0.16,0.17 1.49,1.64 2.94,3.26 1.45,1.63 2.78,3.15 2.94,3.37 0.17,0.23 0.39,0.52 0.49,0.65 0.1,0.12 0.2,0.21 0.21,0.19 0.01,-0.02 1.15,-5.36 2.53,-11.87 1.38,-6.5 3.15,-14.83 3.92,-18.5 0.78,-3.66 1.42,-6.72 1.43,-6.78 0.01,-0.06 0.01,-0.12 -0.02,-0.11 -0.02,0 -0.35,0.14 -0.74,0.32 z M 58.91,73.94 c -0.51,0.11 -1.53,0.3 -2.27,0.42 -0.73,0.13 -2.24,0.34 -3.34,0.47 -1.1,0.14 -2.7,0.33 -3.54,0.44 -0.85,0.11 -1.95,0.28 -2.44,0.37 -0.5,0.09 -1.3,0.27 -1.77,0.4 -0.48,0.13 -1.2,0.36 -1.61,0.5 -0.4,0.15 -1.02,0.42 -1.37,0.6 -0.35,0.19 -0.81,0.46 -1.03,0.61 -0.22,0.15 -0.64,0.47 -0.94,0.72 -0.29,0.24 -0.71,0.65 -0.93,0.9 -0.22,0.26 -0.6,0.78 -0.86,1.16 -0.25,0.39 -0.63,1.03 -0.83,1.44 -0.2,0.4 -0.5,1.05 -0.66,1.45 -0.16,0.39 -0.29,0.74 -0.28,0.77 0.01,0.04 0.26,-0.07 0.55,-0.24 0.3,-0.17 1.22,-0.7 2.04,-1.19 0.83,-0.48 1.76,-1.02 2.07,-1.18 0.32,-0.17 0.92,-0.44 1.34,-0.6 0.42,-0.16 1.1,-0.39 1.5,-0.51 0.41,-0.11 1.16,-0.29 1.68,-0.4 0.51,-0.11 1.31,-0.26 1.77,-0.33 0.46,-0.07 1.73,-0.24 2.84,-0.37 1.1,-0.13 2.74,-0.33 3.64,-0.44 0.9,-0.11 2.34,-0.32 3.21,-0.46 0.86,-0.14 2.02,-0.37 2.57,-0.5 0.55,-0.13 1.35,-0.35 1.77,-0.48 0.42,-0.13 1.12,-0.37 1.54,-0.54 0.42,-0.16 0.99,-0.41 1.27,-0.56 0.27,-0.14 0.54,-0.28 0.6,-0.31 0.08,-0.05 0.04,-0.1 -0.2,-0.25 -0.17,-0.1 -0.68,-0.33 -1.14,-0.51 -0.46,-0.18 -1.09,-0.44 -1.4,-0.57 -0.31,-0.13 -0.82,-0.36 -1.14,-0.52 -0.31,-0.15 -0.73,-0.33 -0.93,-0.39 -0.2,-0.06 -0.46,-0.11 -0.57,-0.1 -0.11,0 -0.62,0.09 -1.14,0.2 z"
       id="path10" />
    <path
       class="shp0"
       d="m 123.25,78.76 c -0.01,0.02 0.17,0.33 0.4,0.69 0.22,0.36 0.57,0.95 0.76,1.32 0.2,0.36 0.51,1.11 0.7,1.66 0.27,0.76 0.42,1.09 0.63,1.37 0.16,0.2 0.43,0.48 0.61,0.62 0.18,0.13 0.48,0.32 0.67,0.41 0.18,0.08 0.62,0.25 0.97,0.36 0.35,0.11 0.99,0.28 1.43,0.37 0.44,0.09 1.14,0.21 1.54,0.27 0.4,0.05 1.07,0.12 1.49,0.15 0.41,0.03 0.75,0.03 0.75,0 0,-0.02 -0.74,-1.04 -1.65,-2.26 -0.9,-1.22 -1.86,-2.49 -2.12,-2.81 -0.26,-0.33 -0.64,-0.74 -0.84,-0.92 -0.2,-0.18 -0.54,-0.41 -0.74,-0.52 -0.2,-0.11 -0.55,-0.24 -0.77,-0.3 -0.22,-0.05 -0.71,-0.14 -1.1,-0.2 -0.38,-0.05 -1,-0.11 -1.37,-0.13 -0.37,-0.03 -0.82,-0.06 -1.01,-0.08 -0.19,-0.02 -0.35,-0.02 -0.35,0 z m -44.29,8.22 c -3.45,1.63 -13.57,6.43 -22.49,10.65 -11.79,5.58 -16.2,7.7 -16.19,7.77 0.01,0.05 0.25,1.58 0.52,3.4 0.28,1.81 0.52,3.31 0.54,3.32 0.01,0.01 5.8,-3.63 12.85,-8.08 7.04,-4.45 16.63,-10.5 21.3,-13.44 4.67,-2.95 8.67,-5.49 8.89,-5.65 0.22,-0.17 0.53,-0.43 0.68,-0.58 0.16,-0.15 0.29,-0.29 0.29,-0.32 0,-0.03 -0.03,-0.05 -0.05,-0.05 -0.03,0 -2.88,1.34 -6.34,2.98 z"
       id="path11" />
    <path
       class="shp2"
       d="m 50.23,84.97 c -0.11,0.02 -0.51,0.08 -0.87,0.14 -0.37,0.05 -1.13,0.22 -1.69,0.36 -0.56,0.15 -1.49,0.43 -2.07,0.64 -0.58,0.2 -1.54,0.59 -2.12,0.86 -0.59,0.28 -1.34,0.65 -1.68,0.84 -0.33,0.19 -1.2,0.75 -1.93,1.26 -0.74,0.5 -1.67,1.12 -2.08,1.38 -0.4,0.25 -0.97,0.6 -1.27,0.76 -0.29,0.17 -0.73,0.4 -0.96,0.52 -0.24,0.12 -0.77,0.35 -1.17,0.52 -0.41,0.16 -1.15,0.41 -1.64,0.56 -0.5,0.14 -1.42,0.36 -2.04,0.49 -0.62,0.12 -1.89,0.35 -2.81,0.5 -0.92,0.15 -1.7,0.28 -1.73,0.29 -0.04,0.01 0.11,0.11 0.33,0.22 0.22,0.12 0.63,0.3 0.9,0.41 0.28,0.11 0.71,0.26 0.97,0.34 0.26,0.07 0.69,0.17 0.97,0.23 0.28,0.06 0.82,0.14 1.2,0.18 0.39,0.03 0.98,0.06 1.31,0.06 0.33,0 0.91,-0.03 1.3,-0.06 0.39,-0.04 1.06,-0.13 1.5,-0.2 0.44,-0.08 1.24,-0.26 1.77,-0.4 0.54,-0.15 1.33,-0.38 1.78,-0.53 0.44,-0.14 1.2,-0.43 1.7,-0.63 0.5,-0.2 1.37,-0.56 1.94,-0.81 0.57,-0.25 2.06,-0.97 3.31,-1.6 1.25,-0.63 3.4,-1.72 4.77,-2.42 1.38,-0.7 3.04,-1.5 3.68,-1.78 0.64,-0.28 1.45,-0.61 1.79,-0.72 0.34,-0.12 0.62,-0.24 0.62,-0.26 0,-0.03 -0.18,-0.15 -0.39,-0.27 -0.21,-0.12 -0.59,-0.3 -0.83,-0.4 -0.25,-0.1 -0.72,-0.25 -1.04,-0.33 -0.48,-0.11 -0.83,-0.14 -1.95,-0.16 -0.76,-0.01 -1.46,0 -1.57,0.01 z"
       id="path12" />
    <path
       class="shp0"
       d="m 100.29,88.97 c -0.06,0.12 -0.12,0.4 -0.15,0.61 -0.02,0.21 0,0.84 0.04,1.39 0.04,0.55 0.14,1.36 0.21,1.8 0.07,0.44 0.22,1.11 0.33,1.5 0.11,0.38 0.35,1.04 0.54,1.46 0.18,0.43 0.49,1.04 0.69,1.37 0.2,0.33 0.54,0.84 0.75,1.13 0.22,0.3 0.7,0.84 1.06,1.2 0.37,0.37 0.95,0.89 1.3,1.14 0.35,0.26 0.89,0.62 1.21,0.81 0.31,0.18 0.86,0.46 1.23,0.63 0.37,0.17 0.99,0.42 1.37,0.54 0.39,0.13 1.06,0.32 1.51,0.41 0.44,0.1 1.11,0.23 1.5,0.28 0.41,0.05 1.28,0.09 2.07,0.09 0.84,0 1.63,-0.04 2.04,-0.09 0.37,-0.06 1.27,-0.25 2,-0.43 0.74,-0.18 1.54,-0.35 1.79,-0.37 0.25,-0.02 0.72,-0.01 1.04,0.03 0.32,0.04 0.96,0.19 1.42,0.34 0.46,0.15 1.33,0.46 1.94,0.69 0.6,0.23 2.84,1.08 4.98,1.9 2.13,0.81 4.35,1.65 4.94,1.86 0.59,0.22 1.72,0.6 2.51,0.86 0.79,0.26 1.63,0.52 1.87,0.58 0.24,0.06 0.46,0.1 0.49,0.09 0.03,-0.01 -0.15,-0.23 -0.4,-0.49 -0.25,-0.26 -0.76,-0.68 -1.13,-0.94 -0.36,-0.26 -0.97,-0.66 -1.33,-0.88 -0.37,-0.22 -1.42,-0.81 -2.34,-1.31 -0.92,-0.51 -2.61,-1.5 -3.75,-2.2 -1.14,-0.7 -2.34,-1.43 -2.67,-1.62 -0.33,-0.19 -0.95,-0.51 -1.37,-0.7 -0.42,-0.2 -0.96,-0.42 -1.19,-0.49 -0.23,-0.07 -0.42,-0.16 -0.41,-0.21 0,-0.05 0.15,-0.38 0.33,-0.73 0.22,-0.43 0.59,-0.98 1.08,-1.59 0.41,-0.51 0.86,-1.13 1,-1.36 0.14,-0.24 0.41,-0.8 0.59,-1.24 0.18,-0.44 0.42,-1.13 0.53,-1.53 0.12,-0.4 0.21,-0.77 0.21,-0.82 0,-0.04 -0.01,-0.08 -0.02,-0.08 -0.01,0 -0.21,0.08 -0.45,0.17 -0.24,0.1 -0.54,0.23 -0.67,0.29 -0.13,0.07 -0.28,0.17 -0.35,0.23 -0.06,0.06 -0.11,0.19 -0.11,0.29 0,0.1 -0.09,0.37 -0.19,0.59 -0.11,0.22 -0.38,0.62 -0.6,0.9 -0.22,0.27 -0.62,0.69 -0.89,0.93 -0.27,0.24 -0.63,0.54 -0.8,0.67 -0.16,0.14 -0.6,0.43 -0.97,0.66 -0.36,0.24 -0.97,0.57 -1.33,0.74 -0.37,0.17 -0.96,0.42 -1.31,0.55 -0.35,0.13 -1.02,0.34 -1.5,0.47 -0.48,0.14 -1.26,0.3 -1.74,0.38 -0.58,0.09 -1.32,0.15 -2.24,0.17 -0.99,0.03 -1.6,0.01 -2.2,-0.06 -0.46,-0.06 -1.2,-0.18 -1.64,-0.28 -0.44,-0.1 -1.18,-0.31 -1.64,-0.48 -0.46,-0.16 -1.15,-0.46 -1.53,-0.67 -0.39,-0.2 -0.93,-0.52 -1.21,-0.7 -0.27,-0.18 -0.72,-0.52 -1,-0.75 -0.28,-0.23 -0.72,-0.65 -0.99,-0.94 -0.27,-0.29 -0.67,-0.75 -0.87,-1.03 -0.21,-0.27 -0.52,-0.72 -0.69,-1 -0.16,-0.27 -0.83,-1.51 -1.47,-2.75 -0.64,-1.23 -1.2,-2.25 -1.24,-2.25 -0.03,0 -0.12,0.11 -0.18,0.24 z"
       id="path13" />
    <path
       class="shp2"
       d="m 23.06,96.97 c 0,0.01 0.16,1.03 0.37,2.25 0.2,1.22 0.59,3.37 0.87,4.78 0.27,1.41 0.75,3.75 1.06,5.2 0.31,1.45 0.85,3.89 1.2,5.43 0.35,1.54 1.18,5.17 1.84,8.07 0.67,2.9 1.48,6.48 1.81,7.97 0.33,1.48 0.88,4.09 1.23,5.8 0.36,1.7 0.72,3.41 0.82,3.8 0.09,0.38 0.22,0.8 0.29,0.93 0.07,0.13 0.24,0.34 0.38,0.48 0.14,0.13 0.56,0.46 0.93,0.73 0.38,0.27 6.27,4.65 13.1,9.74 6.83,5.09 13.91,10.38 15.73,11.75 1.82,1.38 4.72,3.56 6.45,4.86 1.73,1.29 3.57,2.66 4.1,3.04 0.53,0.39 1.67,1.2 2.54,1.81 0.87,0.62 1.62,1.12 1.66,1.12 0.05,0 -0.16,-0.23 -0.46,-0.51 -0.31,-0.28 -1.26,-1.21 -2.13,-2.08 -0.86,-0.87 -2.15,-2.24 -2.86,-3.04 -0.72,-0.81 -2.22,-2.42 -3.34,-3.59 -1.13,-1.17 -2.51,-2.57 -3.07,-3.1 -0.55,-0.54 -2.18,-2.12 -3.61,-3.51 -1.42,-1.4 -5.1,-4.95 -8.17,-7.91 -3.07,-2.95 -6.39,-6.11 -7.38,-7.03 -1,-0.92 -2.17,-2.06 -2.61,-2.53 -0.44,-0.48 -1,-1.13 -1.24,-1.46 -0.25,-0.33 -0.54,-0.77 -0.65,-0.97 -0.12,-0.2 -0.27,-0.55 -0.35,-0.77 -0.08,-0.22 -0.26,-1.06 -0.4,-1.86 -0.15,-0.81 -0.43,-2.49 -0.63,-3.74 -0.2,-1.24 -0.83,-5.31 -1.41,-9.03 -0.57,-3.72 -1.25,-8.1 -1.51,-9.73 -0.25,-1.64 -0.67,-4.2 -0.93,-5.7 -0.26,-1.51 -0.62,-3.49 -0.8,-4.4 -0.19,-0.92 -0.45,-2.03 -0.58,-2.47 -0.13,-0.44 -0.29,-0.85 -0.35,-0.92 -0.06,-0.07 -0.27,-0.18 -0.47,-0.26 -0.21,-0.07 -0.7,-0.2 -1.11,-0.29 -0.4,-0.09 -1.42,-0.28 -2.27,-0.43 -0.84,-0.15 -1.82,-0.34 -2.17,-0.43 -0.35,-0.09 -1.04,-0.3 -1.54,-0.46 -0.49,-0.17 -1.26,-0.44 -1.7,-0.61 -0.44,-0.17 -1.2,-0.46 -1.67,-0.64 -0.48,-0.18 -0.89,-0.33 -0.92,-0.33 -0.03,0 -0.05,0.02 -0.05,0.04 z"
       id="path14" />
    <path
       class="shp0"
       d="m 96.44,99.48 c -0.75,0.56 -2.15,1.63 -3.11,2.38 -0.95,0.75 -3.67,2.93 -6.05,4.84 -2.37,1.91 -7.06,5.72 -10.42,8.47 -3.36,2.75 -6.97,5.69 -8.02,6.53 -1.05,0.84 -2.91,2.37 -4.15,3.4 -1.23,1.03 -2.58,2.14 -3,2.47 -0.43,0.34 -1.07,0.83 -1.44,1.11 -0.37,0.27 -0.94,0.68 -1.27,0.89 -0.34,0.22 -0.81,0.5 -1.06,0.63 -0.24,0.13 -0.43,0.25 -0.43,0.28 0.01,0.02 0.16,0.15 0.32,0.29 l 0.3,0.24 c 0.81,-0.08 3.47,-0.89 10.29,-3.04 5.15,-1.63 12.88,-4.07 17.18,-5.43 4.3,-1.35 8.75,-2.75 9.89,-3.11 1.14,-0.35 2.28,-0.74 2.54,-0.86 0.26,-0.12 0.53,-0.28 0.6,-0.36 0.08,-0.08 0.11,-0.17 0.08,-0.19 -0.03,-0.03 -4.94,0.77 -10.92,1.77 -5.99,1 -10.89,1.81 -10.9,1.8 -0.01,-0.01 0.17,-0.2 0.4,-0.42 0.24,-0.21 0.6,-0.52 0.82,-0.67 0.23,-0.16 0.8,-0.5 1.27,-0.75 0.48,-0.25 1.02,-0.56 1.21,-0.68 0.18,-0.13 0.63,-0.47 1,-0.77 0.37,-0.3 1.09,-0.95 1.6,-1.44 0.52,-0.49 3.21,-3.07 5.99,-5.73 2.77,-2.66 6.26,-6 7.75,-7.43 1.49,-1.42 2.71,-2.61 2.72,-2.64 0.01,-0.03 -0.38,-0.63 -0.87,-1.33 -0.48,-0.7 -0.9,-1.27 -0.92,-1.27 -0.02,0.01 -0.65,0.46 -1.4,1.02 z m -32.85,9.58 c -0.55,0.28 -1.38,0.72 -1.84,0.97 -0.46,0.25 -1.61,0.91 -2.57,1.46 -0.95,0.55 -2.46,1.42 -3.34,1.93 -0.88,0.51 -2.64,1.55 -3.91,2.3 -1.27,0.75 -3.06,1.83 -3.98,2.4 -0.92,0.57 -2.18,1.36 -2.8,1.77 -0.63,0.4 -1.38,0.91 -1.67,1.14 -0.29,0.22 -0.55,0.42 -0.58,0.44 -0.03,0.01 -0.01,0.39 0.04,0.83 0.05,0.44 0.14,1.1 0.2,1.47 0.06,0.36 0.17,0.86 0.24,1.1 0.08,0.24 0.21,0.57 0.3,0.75 0.09,0.17 0.19,0.31 0.23,0.31 0.04,0 0.21,-0.11 0.38,-0.25 0.18,-0.13 0.8,-0.67 1.39,-1.18 0.59,-0.52 1.67,-1.43 2.41,-2.04 0.73,-0.61 3.39,-2.78 5.91,-4.83 2.52,-2.04 5.23,-4.26 6.02,-4.92 0.79,-0.67 1.79,-1.52 2.24,-1.91 0.44,-0.38 1.16,-1.02 1.6,-1.43 0.44,-0.4 0.8,-0.75 0.81,-0.78 0,-0.03 -0.01,-0.06 -0.03,-0.06 -0.03,0.01 -0.5,0.24 -1.05,0.53 z"
       id="path15" />
    <path
       class="shp2"
       d="m 159.23,116.79 c -0.18,0.1 -0.45,0.27 -0.6,0.38 -0.15,0.11 -0.55,0.43 -0.9,0.72 -0.35,0.29 -0.85,0.66 -1.11,0.83 -0.25,0.18 -0.7,0.42 -1,0.54 -0.29,0.12 -0.76,0.28 -1.03,0.35 -0.33,0.08 -0.74,0.12 -1.17,0.12 -0.46,0 -0.85,-0.04 -1.24,-0.14 -0.31,-0.07 -1.03,-0.35 -1.6,-0.6 -0.57,-0.26 -1.22,-0.53 -1.44,-0.62 l -0.4,-0.15 c -0.42,2.49 -0.54,3.22 -0.54,3.23 0,0.01 2.23,0.6 4.95,1.31 2.72,0.72 4.95,1.29 4.96,1.29 0,-0.01 0.34,-1.65 0.75,-3.65 0.41,-2 0.75,-3.67 0.76,-3.72 0.01,-0.04 0,-0.08 -0.02,-0.08 -0.02,0 -0.19,0.08 -0.37,0.19 z"
       id="path16" />
    <path
       class="shp0"
       d="m 120.03,120.81 c -1.04,0.03 -2.07,0.07 -2.27,0.09 l -0.37,0.05 c 0.88,0.83 1.39,1.24 1.71,1.45 0.31,0.2 0.81,0.47 1.1,0.59 0.29,0.13 0.81,0.3 1.14,0.38 0.33,0.08 0.87,0.18 1.2,0.22 0.33,0.04 1.02,0.08 1.54,0.08 0.51,0 1.91,-0.05 3.1,-0.11 1.29,-0.06 2.59,-0.09 3.18,-0.07 0.55,0.03 1.47,0.12 2.04,0.21 0.57,0.09 1.56,0.27 2.2,0.4 0.65,0.14 2.53,0.59 4.18,1.01 1.65,0.42 8.87,2.2 16.04,3.96 7.17,1.76 13.08,3.22 13.13,3.24 0.08,0.03 0.03,0.09 -0.16,0.27 -0.15,0.12 -0.42,0.31 -0.61,0.42 -0.18,0.1 -0.65,0.31 -1.03,0.47 -0.39,0.15 -0.87,0.36 -1.07,0.46 -0.2,0.1 -0.58,0.35 -0.85,0.55 l -0.48,0.35 c 1.97,2.06 2.15,2.21 2.53,2.38 0.24,0.11 0.71,0.27 1.04,0.36 0.33,0.09 0.87,0.2 1.2,0.26 0.33,0.06 1.05,0.16 1.6,0.23 0.56,0.08 1.85,0.21 2.88,0.3 1.03,0.1 2.26,0.2 2.74,0.24 0.48,0.04 0.87,0.06 0.88,0.04 0.01,-0.02 -0.03,-0.12 -0.09,-0.22 -0.07,-0.1 -0.3,-0.41 -0.52,-0.69 -0.22,-0.27 -0.95,-1.06 -1.64,-1.75 -0.68,-0.7 -1.67,-1.64 -2.21,-2.1 -0.53,-0.47 -1.37,-1.16 -1.87,-1.55 -0.49,-0.38 -1.28,-0.95 -1.74,-1.25 -0.46,-0.3 -1.19,-0.73 -1.63,-0.95 -0.69,-0.34 -1.08,-0.47 -2.74,-0.92 -1.07,-0.3 -3.57,-0.94 -5.55,-1.44 -1.99,-0.5 -4.63,-1.18 -5.88,-1.51 -1.25,-0.33 -3.36,-0.9 -4.68,-1.27 -1.32,-0.37 -3.36,-0.93 -4.53,-1.26 -1.17,-0.33 -2.88,-0.79 -3.81,-1.03 -0.93,-0.24 -2.09,-0.52 -2.59,-0.64 -0.49,-0.11 -1.29,-0.27 -1.77,-0.37 -0.48,-0.09 -1.23,-0.22 -1.67,-0.29 -0.44,-0.07 -1.28,-0.19 -1.87,-0.26 -0.59,-0.07 -1.49,-0.16 -2.01,-0.2 -0.51,-0.04 -1.59,-0.11 -2.4,-0.14 -0.81,-0.04 -2.37,-0.06 -3.48,-0.06 -1.1,0.01 -2.86,0.04 -3.91,0.07 z m 5.31,9.34 c 0.19,0.41 0.56,1.08 0.81,1.48 0.25,0.41 0.75,1.23 1.11,1.84 0.37,0.6 0.71,1.25 0.78,1.43 0.09,0.26 0.11,0.56 0.11,1.32 0,0.54 0.01,0.98 0.02,0.98 0.01,0 1.11,0.33 2.44,0.73 1.33,0.41 2.44,0.74 2.47,0.74 0.03,0 -0.01,-0.21 -0.09,-0.45 -0.08,-0.25 -0.27,-0.8 -0.44,-1.22 -0.16,-0.42 -0.46,-1.08 -0.66,-1.47 -0.2,-0.38 -0.54,-0.94 -0.76,-1.23 -0.22,-0.29 -0.62,-0.75 -0.89,-1.02 -0.26,-0.27 -0.69,-0.67 -0.95,-0.87 -0.26,-0.21 -1.01,-0.77 -1.67,-1.25 -0.66,-0.48 -1.51,-1.07 -1.89,-1.31 -0.38,-0.25 -0.7,-0.45 -0.71,-0.45 -0.02,0 0.13,0.34 0.32,0.75 z m -24.25,0.48 c -0.56,0.15 -1.71,0.52 -2.58,0.82 -0.86,0.29 -2.29,0.81 -3.17,1.14 -0.88,0.33 -2.58,0.98 -3.78,1.44 -1.19,0.47 -3.1,1.22 -4.24,1.68 -1.14,0.46 -2.83,1.15 -3.74,1.54 -0.92,0.38 -2.26,0.95 -2.98,1.26 -0.72,0.32 -1.54,0.69 -1.84,0.84 -0.29,0.15 -0.55,0.28 -0.56,0.29 -0.02,0.02 -0.02,0.04 0,0.06 0.01,0.02 0.48,-0.06 1.03,-0.17 0.55,-0.1 1.68,-0.36 2.51,-0.55 0.82,-0.2 2.79,-0.7 4.37,-1.11 1.59,-0.41 4.31,-1.13 6.05,-1.6 1.75,-0.47 4.59,-1.24 6.32,-1.7 1.73,-0.47 3.76,-1 4.51,-1.18 0.75,-0.19 1.69,-0.38 2.07,-0.43 0.39,-0.05 0.9,-0.09 1.14,-0.09 0.24,0 1.18,0.07 2.1,0.16 0.92,0.09 1.79,0.17 1.92,0.18 0.14,0.01 0.26,0 0.27,-0.02 0.01,-0.03 -0.21,-0.21 -0.5,-0.42 -0.28,-0.2 -0.78,-0.53 -1.1,-0.73 -0.32,-0.2 -0.77,-0.45 -0.99,-0.56 -0.22,-0.11 -0.65,-0.31 -0.97,-0.43 -0.31,-0.13 -0.79,-0.3 -1.07,-0.37 -0.27,-0.08 -0.75,-0.18 -1.07,-0.24 -0.38,-0.07 -0.91,-0.11 -1.63,-0.1 -1.04,0.01 -1.1,0.01 -2.07,0.29 z"
       id="path17" />
    <path
       class="shp2"
       d="m 146.02,135.15 c -0.02,0.08 -0.1,0.39 -0.18,0.68 -0.08,0.3 -0.2,0.93 -0.27,1.4 -0.08,0.48 -0.18,1.02 -0.23,1.2 -0.06,0.19 -0.25,0.56 -0.44,0.84 -0.23,0.34 -0.87,1.03 -2.06,2.2 -0.94,0.94 -1.95,1.88 -2.24,2.08 l -0.52,0.38 c 0,0.7 0.05,1.17 0.11,1.5 0.05,0.33 0.28,1.35 0.51,2.27 0.35,1.43 0.45,1.76 0.75,2.35 0.21,0.43 0.36,0.66 0.4,0.62 0.04,-0.03 2.18,-1.61 4.76,-3.51 2.58,-1.9 5.06,-3.72 5.51,-4.04 0.46,-0.32 1.02,-0.75 1.26,-0.95 0.24,-0.2 0.54,-0.53 0.67,-0.72 0.14,-0.19 0.31,-0.53 0.39,-0.75 0.09,-0.22 0.24,-0.77 0.34,-1.23 0.11,-0.46 0.26,-1.22 0.35,-1.68 0.09,-0.47 0.14,-0.87 0.12,-0.88 -0.01,-0.02 -1.14,-0.26 -2.5,-0.54 -1.36,-0.27 -3.38,-0.68 -4.48,-0.9 -1.1,-0.23 -2.05,-0.42 -2.11,-0.44 -0.07,-0.02 -0.12,0.02 -0.14,0.12 z"
       id="path18" />
    <path
       class="shp0"
       d="m 92.65,139.95 c -0.26,0.27 -0.65,0.74 -0.86,1.05 -0.21,0.31 -0.51,0.84 -0.67,1.17 -0.16,0.33 -0.39,0.91 -0.52,1.3 -0.13,0.38 -0.29,0.95 -0.35,1.26 -0.09,0.4 -0.12,0.85 -0.12,1.5 0,0.84 0.03,1.02 0.22,1.74 0.12,0.44 0.34,1.26 0.48,1.83 0.15,0.57 0.32,1.42 0.37,1.9 0.07,0.57 0.1,1.08 0.07,1.5 -0.02,0.35 -0.09,0.83 -0.15,1.07 -0.06,0.23 -0.2,0.61 -0.31,0.83 -0.11,0.22 -0.34,0.54 -0.51,0.72 -0.17,0.18 -0.44,0.4 -0.61,0.5 -0.16,0.09 -0.44,0.22 -0.6,0.28 l -0.3,0.12 c -0.46,-0.38 -0.73,-0.67 -0.91,-0.89 -0.17,-0.22 -0.42,-0.58 -0.55,-0.8 -0.13,-0.22 -0.35,-0.55 -0.51,-0.75 -0.16,-0.21 -0.5,-0.5 -0.86,-0.74 -0.32,-0.21 -0.93,-0.57 -1.35,-0.79 -0.42,-0.22 -1.2,-0.59 -1.74,-0.83 -0.69,-0.3 -1.04,-0.49 -1.22,-0.67 -0.18,-0.18 -0.53,-0.82 -1.29,-2.37 l -1.05,-2.11 c -0.1,0.41 -0.14,1.18 -0.14,1.96 0,0.91 0.03,1.61 0.08,1.9 0.05,0.26 0.16,0.71 0.26,1 0.1,0.3 0.25,0.69 0.34,0.87 0.09,0.18 0.32,0.54 0.51,0.8 0.19,0.26 0.53,0.61 0.75,0.78 0.22,0.17 0.6,0.48 0.86,0.67 0.32,0.25 0.58,0.52 0.8,0.85 0.19,0.28 0.52,0.92 0.74,1.43 0.38,0.9 0.39,0.96 0.39,1.5 0,0.42 -0.03,0.62 -0.11,0.75 -0.06,0.1 -0.21,0.25 -0.33,0.32 -0.15,0.09 -0.34,0.13 -0.6,0.13 -0.21,0 -0.59,-0.04 -0.84,-0.1 -0.31,-0.07 -0.63,-0.21 -1.05,-0.46 -0.33,-0.21 -0.78,-0.46 -1,-0.57 -0.22,-0.11 -0.65,-0.26 -0.94,-0.33 -0.29,-0.08 -1.02,-0.17 -1.6,-0.22 -0.83,-0.06 -1.38,-0.06 -2.44,0 -0.76,0.05 -1.66,0.09 -2.01,0.08 -0.35,0 -0.9,-0.04 -1.23,-0.09 -0.34,-0.06 -0.84,-0.18 -1.12,-0.27 -0.29,-0.09 -0.77,-0.29 -1.07,-0.45 -0.31,-0.15 -0.73,-0.39 -0.96,-0.54 -0.22,-0.15 -0.76,-0.55 -1.2,-0.9 -0.44,-0.35 -0.99,-0.76 -1.22,-0.92 -0.23,-0.16 -0.43,-0.29 -0.45,-0.28 -0.02,0.01 0.02,0.18 0.09,0.39 0.07,0.2 0.24,0.59 0.38,0.86 0.14,0.28 0.4,0.73 0.58,1 0.19,0.28 0.47,0.67 0.62,0.87 0.16,0.2 0.51,0.59 0.78,0.87 0.27,0.27 0.75,0.7 1.06,0.95 0.31,0.25 0.88,0.61 1.27,0.81 0.58,0.3 1.01,0.45 2.51,0.86 0.99,0.28 2.04,0.58 2.33,0.68 0.3,0.09 0.81,0.3 1.14,0.46 0.33,0.16 0.84,0.47 1.14,0.69 0.29,0.21 0.92,0.79 1.38,1.27 l 0.86,0.88 c -0.37,1.21 -0.55,1.8 -0.64,2.08 l -0.17,0.52 c 8.47,8.29 11.67,11.43 12.58,12.33 l 1.65,1.63 c 0.66,-0.48 1.19,-0.92 1.61,-1.3 0.43,-0.38 2.44,-2.35 4.48,-4.39 2.04,-2.04 4.53,-4.49 5.54,-5.44 1,-0.95 1.94,-1.88 2.08,-2.07 0.14,-0.18 0.31,-0.44 0.36,-0.58 0.06,-0.14 0.11,-0.39 0.11,-0.55 0,-0.16 -0.08,-0.68 -0.17,-1.15 -0.1,-0.47 -0.19,-0.9 -0.2,-0.97 -0.03,-0.09 0.18,-0.22 1.05,-0.64 0.66,-0.32 1.37,-0.73 1.79,-1.03 0.39,-0.27 0.93,-0.73 1.22,-1.02 0.28,-0.29 0.61,-0.66 0.74,-0.82 0.12,-0.17 0.34,-0.48 0.48,-0.7 0.14,-0.22 0.55,-1.02 0.92,-1.77 0.36,-0.75 0.79,-1.56 0.95,-1.8 0.16,-0.24 0.51,-0.64 0.78,-0.9 0.28,-0.26 0.71,-0.58 0.96,-0.71 0.26,-0.14 1.2,-0.52 2.1,-0.86 0.91,-0.34 1.8,-0.72 1.99,-0.84 0.2,-0.12 0.37,-0.25 0.39,-0.29 0.02,-0.04 -0.04,-0.08 -0.12,-0.1 -0.08,-0.01 -0.71,-0.05 -1.39,-0.07 -0.78,-0.03 -1.55,-0.02 -2.1,0.03 -0.48,0.04 -1.13,0.14 -1.44,0.21 -0.31,0.07 -0.73,0.2 -0.93,0.27 -0.21,0.08 -0.55,0.23 -0.77,0.34 -0.22,0.11 -0.6,0.34 -0.84,0.51 -0.24,0.17 -0.85,0.71 -1.37,1.21 -0.51,0.5 -1.11,1.04 -1.34,1.21 -0.22,0.16 -0.67,0.48 -1,0.7 -0.33,0.23 -0.96,0.59 -1.4,0.81 -0.44,0.23 -1.13,0.52 -1.54,0.65 -0.61,0.21 -0.85,0.26 -1.44,0.28 -0.38,0.02 -0.82,0 -0.96,-0.04 -0.15,-0.04 -0.35,-0.13 -0.44,-0.2 -0.15,-0.12 -0.17,-0.18 -0.17,-0.56 0,-0.38 0.03,-0.47 0.3,-0.92 0.16,-0.27 0.39,-0.68 0.51,-0.9 0.12,-0.22 0.33,-0.67 0.46,-1 0.12,-0.33 0.25,-0.79 0.28,-1.03 0.02,-0.28 0,-0.76 -0.08,-1.37 -0.08,-0.65 -0.1,-1.2 -0.08,-1.83 0.03,-0.73 0.06,-0.99 0.2,-1.4 0.1,-0.27 0.28,-0.68 0.41,-0.9 0.13,-0.22 0.39,-0.58 0.59,-0.81 0.19,-0.22 0.6,-0.67 0.89,-1 0.3,-0.32 0.6,-0.7 0.69,-0.84 0.08,-0.14 0.14,-0.26 0.13,-0.28 -0.01,-0.02 -0.27,0.05 -0.59,0.16 -0.31,0.1 -0.76,0.27 -1,0.37 -0.24,0.1 -0.61,0.27 -0.83,0.38 -0.22,0.11 -0.57,0.32 -0.77,0.45 -0.21,0.14 -0.53,0.4 -0.73,0.58 -0.2,0.18 -0.47,0.49 -0.61,0.69 -0.14,0.2 -0.33,0.53 -0.43,0.73 -0.11,0.2 -0.37,0.85 -0.59,1.44 -0.21,0.58 -0.54,1.36 -0.72,1.73 -0.19,0.37 -0.54,0.95 -0.79,1.29 -0.24,0.35 -0.64,0.86 -0.88,1.13 -0.24,0.28 -0.54,0.57 -0.67,0.64 -0.16,0.1 -0.34,0.13 -0.6,0.13 -0.2,-0.01 -0.61,-0.09 -0.92,-0.18 -0.45,-0.14 -0.55,-0.2 -0.58,-0.33 -0.02,-0.08 -0.11,-0.81 -0.2,-1.61 -0.09,-0.81 -0.2,-1.79 -0.24,-2.17 -0.04,-0.39 -0.12,-0.84 -0.18,-1 -0.05,-0.16 -0.17,-0.43 -0.27,-0.6 -0.09,-0.17 -0.61,-0.93 -1.14,-1.7 -0.54,-0.77 -1.17,-1.71 -1.4,-2.1 -0.23,-0.38 -0.49,-0.93 -0.58,-1.2 -0.09,-0.27 -0.2,-0.71 -0.24,-0.97 -0.05,-0.29 -0.06,-0.69 -0.03,-1.06 0.02,-0.33 0.14,-1.16 0.27,-1.84 0.12,-0.68 0.26,-1.49 0.3,-1.82 0.04,-0.32 0.06,-0.6 0.05,-0.61 -0.02,-0.02 -0.24,0.19 -0.5,0.45 z m 87.53,2.1 c 0.13,0.01 0.36,0.01 0.5,0 0.15,-0.02 0.05,-0.03 -0.23,-0.03 -0.28,0 -0.4,0.01 -0.27,0.03 z m -2.54,0.07 c 0.13,0.01 0.36,0.01 0.5,0 0.15,-0.02 0.05,-0.03 -0.23,-0.03 -0.28,0 -0.4,0.01 -0.27,0.03 z m -2.54,0.06 c 0.13,0.02 0.36,0.02 0.5,0 0.15,-0.01 0.05,-0.02 -0.23,-0.02 -0.27,0 -0.4,0.01 -0.27,0.02 z m -2.54,0.07 c 0.13,0.01 0.36,0.01 0.51,0 0.14,-0.02 0.04,-0.03 -0.24,-0.03 -0.27,0 -0.39,0.01 -0.27,0.03 z m -2.54,0.07 c 0.13,0.01 0.36,0.01 0.51,0 0.14,-0.02 0.04,-0.03 -0.24,-0.03 -0.27,0 -0.39,0.01 -0.27,0.03 z m -2.54,0.06 c 0.13,0.02 0.36,0.02 0.51,0 0.14,-0.01 0.04,-0.02 -0.24,-0.02 -0.27,0 -0.39,0.01 -0.27,0.02 z m -38.18,0.33 c 0.11,0.11 0.56,0.49 0.99,0.86 0.44,0.36 1.14,1.01 1.57,1.43 0.43,0.42 0.98,1.04 1.23,1.37 0.24,0.33 0.43,0.61 0.41,0.63 -0.01,0.02 -0.27,0.14 -0.58,0.27 -0.3,0.12 -0.73,0.34 -0.94,0.48 -0.21,0.14 -0.47,0.38 -0.58,0.53 -0.11,0.16 -0.25,0.42 -0.31,0.59 -0.07,0.19 -0.12,0.5 -0.12,0.86 0,0.44 0.03,0.64 0.13,0.87 0.07,0.16 0.24,0.42 0.37,0.57 0.13,0.14 0.52,0.46 0.87,0.69 0.34,0.24 1.47,1.07 2.5,1.84 1.03,0.77 2.23,1.65 2.67,1.94 0.44,0.3 0.93,0.6 1.09,0.68 0.23,0.12 0.28,0.13 0.28,0.05 0,-0.06 -0.08,-0.55 -0.17,-1.09 -0.1,-0.54 -0.31,-1.59 -0.47,-2.35 -0.17,-0.75 -0.47,-2.02 -0.67,-2.83 -0.2,-0.81 -0.52,-1.96 -0.7,-2.57 -0.19,-0.6 -0.45,-1.32 -0.57,-1.6 -0.13,-0.27 -0.37,-0.69 -0.53,-0.93 -0.16,-0.24 -0.46,-0.6 -0.68,-0.8 -0.21,-0.21 -0.6,-0.5 -0.86,-0.65 -0.25,-0.15 -0.78,-0.38 -1.16,-0.51 -0.42,-0.13 -1.04,-0.27 -1.51,-0.33 -0.44,-0.06 -1.18,-0.12 -1.64,-0.14 l -0.83,-0.05 z"
       id="path19" />
    <path
       class="shp2"
       d="m 128.02,155.89 c -0.33,0.27 -0.96,0.82 -1.4,1.22 -0.45,0.4 -1.15,1.12 -1.58,1.6 -0.43,0.47 -1.33,1.52 -2,2.32 -0.68,0.81 -1.51,1.74 -1.84,2.08 -0.33,0.33 -2.78,2.73 -5.44,5.33 -2.67,2.6 -5.21,5.07 -5.64,5.49 -0.43,0.43 -0.76,0.78 -0.72,0.79 0.04,0.01 1.3,-0.88 2.8,-1.97 1.49,-1.09 4.15,-3.03 5.89,-4.31 1.75,-1.28 4.4,-3.24 5.89,-4.36 1.48,-1.11 3.99,-3.02 5.56,-4.23 1.57,-1.22 2.85,-2.23 2.86,-2.25 0,-0.02 -0.81,-0.52 -1.8,-1.12 -1,-0.59 -1.85,-1.08 -1.9,-1.08 -0.04,0.01 -0.35,0.23 -0.68,0.49 z"
       id="path20" />
  </g>
</svg>
